<svg width="34" height="24" viewBox="0 0 9 6.3" xmlns="http://www.w3.org/2000/svg">
  <path d="M1.2 5.2h4v-4h-4z" fill="#007e78" fill-rule="evenodd" style="stroke:#007e78;stroke-width:2.38125;stroke-linecap:round;stroke-linejoin:round;stroke-dasharray:none;stroke-opacity:1"/>
  <path d="M123 119.3a1.2 1.2 0 1 1-2.5 0 1.2 1.2 0 0 1 2.4 0m-6.7 2.3.1.4c-.2 0-.3-.3-.3-.7 0-.7.6-.8 1.5-.8v1.3l-.2-.4c-.1-.2-.3-.4-.6-.4s-.5.3-.5.6zm-1 1.2c0 .2.3.4.5.4h1.9l.4-.2-.1-.5-.1-.2-.1-.1 2.3-.7.1.5.1.2.9.9h.5c.2-.2.2-.4 0-.6l-.7-.8-.3-1.5c0-.2-.2-.3-.4-.3l-2.7.2c-.7 0-2 0-2 1.2 0 .6.3 1 .7 1h-.5c-.2.1-.4.3-.4.5" style="stroke-width:.0264583" transform="translate(-58.7 -59.5) scale(.51955)" fill="#fff"/>
</svg>