<?xml version="1.0" encoding="UTF-8" standalone="no"?>
<svg
   width="24.198999mm"
   height="9.0794401mm"
   viewBox="0 0 24.198999 9.0794401"
   version="1.1"
   id="svg1"
   inkscape:version="1.3.2 (091e20e, 2023-11-25, custom)"
   sodipodi:docname="bayi.svg"
   xmlns:inkscape="http://www.inkscape.org/namespaces/inkscape"
   xmlns:sodipodi="http://sodipodi.sourceforge.net/DTD/sodipodi-0.dtd"
   xmlns="http://www.w3.org/2000/svg"
   xmlns:svg="http://www.w3.org/2000/svg">
  <sodipodi:namedview
     id="namedview1"
     pagecolor="#ffffff"
     bordercolor="#000000"
     borderopacity="0.25"
     inkscape:showpageshadow="2"
     inkscape:pageopacity="0.0"
     inkscape:pagecheckerboard="0"
     inkscape:deskcolor="#d1d1d1"
     inkscape:document-units="mm"
     inkscape:zoom="3.0467172"
     inkscape:cx="73.029424"
     inkscape:cy="-3.9386656"
     inkscape:window-width="1443"
     inkscape:window-height="492"
     inkscape:window-x="243"
     inkscape:window-y="554"
     inkscape:window-maximized="0"
     inkscape:current-layer="layer1" />
  <defs
     id="defs1">
    <clipPath
       id="clip_1">
      <path
         transform="matrix(0.1,0,0,-0.1,0,540)"
         d="m 2842.8,3984 h 355.199 v 355.195 H 2842.8 Z"
         id="path2" />
    </clipPath>
    <clipPath
       id="clip_1-0">
      <path
         transform="matrix(0.1,0,0,-0.1,0,540)"
         d="m 2842.8,3984 h 355.199 v 355.195 H 2842.8 Z"
         id="path2-7" />
    </clipPath>
    <clipPath
       clipPathUnits="userSpaceOnUse"
       id="clipPath3">
      <g
         id="g4">
        <path
           d="m 114.34282,125.24025 h 9.39798 v -9.39786 h -9.39798 Z"
           id="path3"
           style="stroke-width:0.0264583" />
      </g>
    </clipPath>
    <clipPath
       clipPathUnits="userSpaceOnUse"
       id="clipPath4">
      <g
         id="g5">
        <path
           d="m 114.34282,125.24025 h 9.39798 v -9.39786 h -9.39798 Z"
           id="path4"
           style="stroke-width:0.0264583" />
      </g>
    </clipPath>
  </defs>
  <g
     inkscape:label="Layer 1"
     inkscape:groupmode="layer"
     id="layer1"
     transform="translate(-66.699072,-125.10373)">
    <path
       d="m 66.699072,134.18317 h 24.199 v -9.07944 h -24.199 Z"
       fill="#007e78"
       fill-rule="evenodd"
       id="path10"
       style="stroke-width:0.0163541" />
    <g
       id="g1"
       transform="translate(-40.302649,9.0335361)">
      <path
         d="m 122.9206,119.25354 c 0,0.66886 -0.54107,1.21099 -1.20861,1.21099 -0.66755,0 -1.20862,-0.54213 -1.20862,-1.21099 0,-0.66887 0.54107,-1.211 1.20862,-1.211 0.66754,0 1.20861,0.54213 1.20861,1.211"
         fill="#ffffff"
         id="path20"
         style="stroke-width:0.0264583" /> <path
         d="m 116.15203,121.62711 c 0,0.15505 0.0582,0.29078 0.15479,0.39741 -0.23204,-0.11642 -0.3482,-0.31988 -0.3482,-0.68792 0,-0.71702 0.65749,-0.81386 1.54729,-0.87207 v 1.33721 l -0.19341,-0.3683 c -0.12568,-0.25188 -0.30957,-0.38762 -0.58023,-0.38762 -0.31909,0 -0.58024,0.26168 -0.58024,0.58129 z m -0.87021,1.16258 c 0,0.21326 0.1741,0.38762 0.38682,0.38762 h 1.93384 c 0.14499,0 0.28998,-0.0873 0.34819,-0.22278 0.0675,-0.13573 0.0288,-0.29078 -0.0484,-0.40693 l -0.13546,-0.24236 -0.0773,-0.14526 2.34976,-0.64902 0.0871,0.47466 c 0.01,0.0775 0.0482,0.15505 0.10636,0.20347 l 0.87022,0.87207 c 0.0773,0.0775 0.17409,0.11615 0.27067,0.11615 0.0968,0 0.19341,-0.0386 0.27093,-0.11615 0.15452,-0.15505 0.15452,-0.39741 0,-0.55219 l -0.78343,-0.78475 -0.27067,-1.53088 c -0.0291,-0.18415 -0.19341,-0.31988 -0.37703,-0.31988 l -2.70748,0.19394 c -0.75433,0.0484 -1.93411,0.12594 -1.93411,1.25941 0,0.6104 0.27067,0.9107 0.64797,1.06574 h -0.55113 c -0.21272,0.01 -0.38682,0.18415 -0.38682,0.39714"
         fill="#ffffff"
         id="path21"
         style="stroke-width:0.0264583" /> </g>
  </g>
</svg>