<?xml version="1.0" encoding="UTF-8" standalone="no"?>
<!-- Created with Inkscape (http://www.inkscape.org/) -->

<svg
   width="24.198723mm"
   height="9.079442mm"
   viewBox="0 0 24.198723 9.079442"
   version="1.1"
   id="svg1"
   inkscape:version="1.3.2 (091e20e, 2023-11-25, custom)"
   sodipodi:docname="bumil.svg"
   xmlns:inkscape="http://www.inkscape.org/namespaces/inkscape"
   xmlns:sodipodi="http://sodipodi.sourceforge.net/DTD/sodipodi-0.dtd"
   xmlns="http://www.w3.org/2000/svg"
   xmlns:svg="http://www.w3.org/2000/svg">
  <sodipodi:namedview
     id="namedview1"
     pagecolor="#ffffff"
     bordercolor="#000000"
     borderopacity="0.25"
     inkscape:showpageshadow="2"
     inkscape:pageopacity="0.0"
     inkscape:pagecheckerboard="0"
     inkscape:deskcolor="#d1d1d1"
     inkscape:document-units="mm"
     inkscape:zoom="2.1543544"
     inkscape:cx="-97.941176"
     inkscape:cy="31.563981"
     inkscape:window-width="1443"
     inkscape:window-height="492"
     inkscape:window-x="192"
     inkscape:window-y="192"
     inkscape:window-maximized="0"
     inkscape:current-layer="g30" />
  <defs
     id="defs1">
    <clipPath
       id="clip_2">
      <path
         transform="matrix(0.1,0,0,-0.1,0,540)"
         d="m 816,3994.8 h 343.203 v 343.199 H 816 Z"
         id="path3" />
    </clipPath>
  </defs>
  <g
     inkscape:label="Layer 1"
     inkscape:groupmode="layer"
     id="layer1"
     transform="translate(-91.196957,-96.200443)">
    <g
       id="g30"
       transform="matrix(0.26458333,0,0,0.26458333,77.340667,68.132385)">
      <path
         d="M 52.370232,140.4 H 143.82997 V 106.084 H 52.370232 Z"
         fill="#005050"
         fill-rule="evenodd"
         id="path8"
         style="stroke-width:0.0794641" />
      <g
         clip-path="url(#clip_2)"
         id="g23">
        <path
           transform="matrix(0.1,0,0,-0.1,0,540)"
           d="m 1008.66,4296.57 c 0,-15.63 -12.64,-28.3 -28.246,-28.3 -15.601,0 -28.246,12.67 -28.246,28.3 0,15.63 12.645,28.31 28.246,28.31 15.606,0 28.246,-12.68 28.246,-28.31"
           fill="#ffffff"
           id="path22" />
        <path
           transform="matrix(0.1,0,0,-0.1,0,540)"
           d="m 1049.56,4166.13 c -0.39,9.12 -3.68,17.89 -9.4,25.01 l -15.96,23 -17.65,25.51 c -3.11,4.42 -5.97,9.27 -9.503,13.41 -4.582,5.35 -11.223,8.49 -18.254,8.63 -6.383,-0.1 -12.527,-2.42 -17.375,-6.58 -6.391,-4.53 -34.113,-23.95 -41.492,-29.3 -8.653,-6.08 -10.418,-17.23 -1.625,-24.3 13.703,-10.83 27.617,-21.69 41.457,-32.31 l -17.09,-63.68 h 34.746 v -99.07 h 28.246 v 99.07 h 33.8 l -4.8,17.9 c -0.8,2.44 -1.27,4.97 -1.42,7.54 -0.07,4.77 2.34,9.25 6.36,11.81 6.47,6.02 10.09,14.51 9.96,23.36 z m -99.443,46.52 8.934,6.09 8.652,-20.06 z"
           fill="#ffffff"
           id="path23" />
      </g>
    </g>
  </g>
</svg>
