<svg width="34" height="24" viewBox="0 0 9 6.4" xmlns="http://www.w3.org/2000/svg">
  <path style="fill:#005050;fill-opacity:1;stroke:#005050;stroke-width:2.03627;stroke-linecap:round;stroke-linejoin:round;stroke-dasharray:none;stroke-opacity:1" d="M1 1h4.3v4.3H1z"/>
  <g style="fill:#fff">
    <path style="fill:#fff;fill-opacity:1;stroke-width:.0264583" d="M5.7 4.2a1 1 0 0 0-.3-.7L5 3l-.5-.6-.2-.4a.7.7 0 0 0-.5-.2l-.5.1-1 .8c-.3.2-.3.5 0 .7l1 .8L3 5.8h.9v2.6h.7V5.8h1l-.2-.5v-.2l.1-.3c.2-.1.3-.4.3-.6zM3 3l.2-.2.2.5zM4.6.7a.7.7 0 1 1-1.5 0 .7.7 0 0 1 1.5 0" transform="matrix(.59342 0 0 .60383 .9 .7)"/>
  </g>
</svg>