<?xml version="1.0" encoding="UTF-8" standalone="no"?>
<!-- Created with Inkscape (http://www.inkscape.org/) -->

<svg
   width="23.999998mm"
   height="9.0794401mm"
   viewBox="0 0 23.999998 9.0794401"
   version="1.1"
   id="svg1"
   inkscape:version="1.3.2 (091e20e, 2023-11-25, custom)"
   sodipodi:docname="dewasa.svg"
   xmlns:inkscape="http://www.inkscape.org/namespaces/inkscape"
   xmlns:sodipodi="http://sodipodi.sourceforge.net/DTD/sodipodi-0.dtd"
   xmlns="http://www.w3.org/2000/svg"
   xmlns:svg="http://www.w3.org/2000/svg">
  <sodipodi:namedview
     id="namedview1"
     pagecolor="#ffffff"
     bordercolor="#000000"
     borderopacity="0.25"
     inkscape:showpageshadow="2"
     inkscape:pageopacity="0.0"
     inkscape:pagecheckerboard="0"
     inkscape:deskcolor="#d1d1d1"
     inkscape:document-units="mm"
     inkscape:zoom="3.0467172"
     inkscape:cx="-0.49233319"
     inkscape:cy="21.170327"
     inkscape:window-width="1920"
     inkscape:window-height="1111"
     inkscape:window-x="-9"
     inkscape:window-y="-9"
     inkscape:window-maximized="1"
     inkscape:current-layer="layer1" />
  <defs
     id="defs1" />
  <g
     inkscape:label="Layer 1"
     inkscape:groupmode="layer"
     id="layer1"
     transform="translate(-92.886122,-143.93334)">
    <path
       d="m 92.886122,153.01278 h 23.999998 v -9.07944 H 92.886122 Z"
       fill="#d2dc01"
       fill-rule="evenodd"
       id="path12"
       style="stroke-width:0.0165327" />
    <g
       clip-path="none"
       id="g19"
       transform="matrix(0.26458333,0,0,0.26458333,-100.18633,115.63536)">
      <path
         transform="matrix(0.1,0,0,-0.1,0,540)"
         d="m 7616.43,4237.99 c 13.74,0 24.88,11.13 24.88,24.87 0,13.73 -11.14,24.86 -24.88,24.86 -13.74,0 -24.88,-11.13 -24.88,-24.86 0,-13.74 11.14,-24.87 24.88,-24.87"
         fill="#ffffff"
         id="path13" />
      <path
         transform="matrix(0.1,0,0,-0.1,0,540)"
         d="m 7648.87,4181.64 c 2.15,-1.54 4.72,-2.38 7.36,-2.38 h 34.84 c 6.87,0 12.43,5.56 12.43,12.43 0,6.87 -5.56,12.44 -12.43,12.44 h -30.75 l -23.69,17.35 c -5.17,7.1 -13.75,10.9 -22.49,9.95 -12.87,-1.6 -22.47,-12.65 -22.24,-25.61 v -71.32 c 0,-13.73 11.14,-24.87 24.88,-24.87 h 24.53 29.85 v -63.25 c 0,-6.87 5.57,-12.44 12.44,-12.44 6.87,0 12.44,5.57 12.44,12.44 v 75.83 c 0,6.87 -5.57,12.44 -12.44,12.44 h -42.29 v 52.62"
         fill="#ffffff"
         id="path14" />
      <path
         transform="matrix(0.1,0,0,-0.1,0,540)"
         d="m 7885.12,4237.99 c 13.74,0 24.88,11.13 24.88,24.87 0,13.73 -11.14,24.86 -24.88,24.86 -13.74,0 -24.88,-11.13 -24.88,-24.86 0,-13.74 11.14,-24.87 24.88,-24.87"
         fill="#ffffff"
         id="path15" />
      <path
         transform="matrix(0.1,0,0,-0.1,0,540)"
         d="m 7887.41,4231.68 c -8.74,0.95 -17.32,-2.85 -22.49,-9.95 l -23.69,-17.6 h -30.75 c -6.87,0 -12.43,-5.57 -12.43,-12.44 0,-6.87 5.56,-12.43 12.43,-12.43 h 34.84 c 2.64,0 5.22,0.84 7.36,2.38 l 7.56,5.63 v -52.77 h -42.14 c -6.87,0 -12.44,-5.57 -12.44,-12.43 v -75.69 c 0,-6.87 5.57,-12.44 12.44,-12.44 6.87,0 12.44,5.57 12.44,12.44 v 63.25 h 29.85 24.28 c 13.74,0 24.88,11.14 24.88,24.87 v 71.56 c 0.24,12.93 -9.31,23.97 -22.14,25.62"
         fill="#ffffff"
         id="path16" />
      <path
         transform="matrix(0.1,0,0,-0.1,0,540)"
         d="m 7835.36,4169.31 h -169.17 c -5.5,0 -9.96,-4.45 -9.96,-9.94 0,-5.5 4.46,-9.95 9.96,-9.95 h 74.63 v -99.46 h -29.85 v -19.9 h 79.61 v 19.9 h -29.85 v 99.46 h 74.63 c 5.5,0 9.96,4.45 9.96,9.95 0,5.49 -4.46,9.94 -9.96,9.94"
         fill="#ffffff"
         id="path17" />
      <path
         transform="matrix(0.1,0,0,-0.1,0,540)"
         d="m 7929.89,4206.61 c -5.47,0 -9.94,-4.45 -9.94,-9.95 v -96.97 h -69.66 c -5.5,0 -9.95,-4.46 -9.95,-9.95 0,-5.49 4.45,-9.94 9.95,-9.94 h 29.85 v -29.84 h -19.9 v -19.9 h 59.71 v 19.9 h -19.9 v 29.84 h 29.84 c 5.52,0 9.95,4.45 9.95,9.94 v 106.92 c 0,5.5 -4.43,9.95 -9.95,9.95"
         fill="#ffffff"
         id="path19" />
      <path
         transform="matrix(0.1,0,0,-0.1,0,540)"
         d="m 7651.26,4099.69 h -69.66 v 99.46 c 0,5.49 -4.46,9.95 -9.95,9.95 -5.5,0 -9.95,-4.46 -9.95,-9.95 v -109.41 c 0,-5.49 4.45,-9.94 9.95,-9.94 h 29.85 v -29.84 h -19.9 v -19.9 h 59.71 v 19.9 h -19.9 v 29.84 h 29.85 c 5.49,0 9.95,4.45 9.95,9.94 0,5.49 -4.46,9.95 -9.95,9.95"
         fill="#ffffff"
         id="path18" />
    </g>
  </g>
</svg>
