<svg width="34" height="24" viewBox="0 0 9 6.3" xmlns="http://www.w3.org/2000/svg">
  <path d="M1 5.3h4.3V1H1Z" fill="#d2dc01" fill-rule="evenodd" style="stroke:#d2dc01;stroke-width:2.11667;stroke-linecap:round;stroke-linejoin:round;stroke-dasharray:none;stroke-opacity:1"/>
  <g fill="#fff">
    <path d="M1.5 2.2a.3.3 0 1 0 0-.6.3.3 0 0 0 0 .6m.5.7h.4a.2.2 0 1 0 0-.3h-.3l-.3-.2-.3-.1c-.2 0-.3.1-.3.3v.9l.3.3h.7v.8a.2.2 0 0 0 .3 0v-1l-.2-.1h-.5v-.7m3-.6a.3.3 0 1 0 0-.6.3.3 0 0 0 0 .6m.1.1-.3.1-.3.2h-.4A.2.2 0 0 0 4 3h.6v.6H4l-.1.1v1a.2.2 0 0 0 .3 0v-.8h.6c.2 0 .3-.2.3-.3v-1s0-.2-.2-.2"/>
    <path d="M4.2 3h-2a.1.1 0 1 0 0 .3H3v1.2h-.4v.3h1v-.3h-.4V3.3h1a.1.1 0 1 0 0-.3m1.2-.4-.1.1V4h-.9a.1.1 0 0 0 0 .2h.4v.4h-.3v.3h.8v-.3H5v-.4h.5V2.6l-.1-.1M2 3.9H1V2.7a.1.1 0 0 0-.2 0V4l.2.1h.3v.4h-.2v.3h.7v-.3h-.2v-.4h.3A.1.1 0 1 0 2 4"/>
  </g>
</svg>