<?xml version="1.0" encoding="UTF-8" standalone="no"?>
<svg
   version="1.1"
   width="545.37427"
   height="419.26468"
   viewBox="0 0 545.37427 419.26468"
   id="svg312"
   sodipodi:docname="PDF1_SVG1.svg"
   inkscape:version="1.3.2 (091e20e, 2023-11-25, custom)"
   xmlns:inkscape="http://www.inkscape.org/namespaces/inkscape"
   xmlns:sodipodi="http://sodipodi.sourceforge.net/DTD/sodipodi-0.dtd"
   xmlns="http://www.w3.org/2000/svg"
   xmlns:svg="http://www.w3.org/2000/svg">
  <sodipodi:namedview
     id="namedview312"
     pagecolor="#ffffff"
     bordercolor="#000000"
     borderopacity="0.25"
     inkscape:showpageshadow="2"
     inkscape:pageopacity="0.0"
     inkscape:pagecheckerboard="0"
     inkscape:deskcolor="#d1d1d1"
     inkscape:zoom="1.45625"
     inkscape:cx="267.12446"
     inkscape:cy="222.14592"
     inkscape:window-width="1920"
     inkscape:window-height="1111"
     inkscape:window-x="-9"
     inkscape:window-y="-9"
     inkscape:window-maximized="1"
     inkscape:current-layer="svg312"
     showgrid="false" />
  <defs
     id="defs3">
    <clipPath
       id="clip_0">
      <path
         transform="matrix(0.1,0,0,-0.1,0,540)"
         d="m 5859.6,2224.8 h 171.598 v 171.598 H 5859.6 Z"
         clip-rule="evenodd"
         id="path1" />
    </clipPath>
    <clipPath
       id="clip_1">
      <path
         transform="matrix(0.1,0,0,-0.1,0,540)"
         d="m 2091.6,4564.8 h 925.199 v 432 H 2091.6 Z"
         clip-rule="evenodd"
         id="path2" />
    </clipPath>
    <clipPath
       id="clip_2">
      <path
         transform="matrix(0.1,0,0,-0.1,0,540)"
         d="m 481.199,4561.2 h 1610.4 v 498 h -1610.4 z"
         clip-rule="evenodd"
         id="path3" />
    </clipPath>
  </defs>
  <g
     id="g312"
     transform="matrix(1.3402449,0,0,1.3402449,-609.22472,-170.31575)">
    <path
       d="m 861.48,439.08 c 0.37,-36.2 -27.83,-59.27 -27.07,-86.78 0.78,-28.22 25.01,-54.36 11.72,-127.54 -13.28,-73.18 -78.15,-109.78 -137.55,-94.1 -59.41,15.68 -46.11,57.51 -102.37,56.46 -56.26,-1.06 -100.75,-1.04 -134.38,87.82 -31.32,82.84 -11.04,154.8 -8.14,164.14"
       fill="#dff7e5"
       fill-opacity="0.50196"
       fill-rule="evenodd"
       id="path8"
       style="stroke-width:0.1" />
    <path
       d="m 861.48,439.08 c 0.37,-36.2 -27.83,-59.27 -27.07,-86.78 0.78,-28.22 25.01,-54.36 11.72,-127.54 -13.28,-73.18 -78.15,-109.78 -137.55,-94.1 -59.41,15.68 -46.11,57.51 -102.37,56.46 -56.26,-1.06 -100.75,-1.04 -134.38,87.82 -31.32,82.84 -11.04,154.8 -8.14,164.14"
       fill="#dff7e5"
       fill-opacity="0.50196"
       fill-rule="evenodd"
       id="path9"
       style="stroke-width:0.1" />
    <path
       d="m 760.32,437.46 c 1.78,-0.4 3.62,-0.4 5.4,0 -1.78,0.4 -3.62,0.4 -5.4,0"
       fill="#263238"
       fill-rule="evenodd"
       id="path10"
       style="stroke-width:0.1" />
    <path
       d="m 749.4,437.48 c 0.89,-0.28 1.83,-0.38 2.76,-0.28 0.93,-0.1 1.87,0 2.76,0.28 -1.82,0.37 -3.7,0.37 -5.52,0"
       fill="#263238"
       fill-rule="evenodd"
       id="path11"
       style="stroke-width:0.1" />
    <path
       d="m 738.6,437.46 c 0.87,-0.27 1.79,-0.36 2.7,-0.27 0.91,-0.09 1.83,0 2.7,0.27 -0.87,0.26 -1.79,0.35 -2.7,0.27 -0.91,0.08 -1.83,-0.01 -2.7,-0.27"
       fill="#263238"
       fill-rule="evenodd"
       id="path12"
       style="stroke-width:0.1" />
    <path
       d="m 765.72,330.96 c -0.32,-1.94 -0.32,-3.94 0,-5.88 0.32,1.94 0.32,3.94 0,5.88"
       fill="#263238"
       fill-rule="evenodd"
       id="path13"
       style="stroke-width:0.1" />
    <path
       d="m 765.72,342.6 c -0.32,-1.94 -0.32,-3.94 0,-5.88 0.32,1.94 0.32,3.94 0,5.88"
       fill="#263238"
       fill-rule="evenodd"
       id="path14"
       style="stroke-width:0.1" />
    <path
       d="m 765.72,354.24 c -0.32,-1.9 -0.32,-3.86 0,-5.76 0.32,1.9 0.32,3.86 0,5.76"
       fill="#263238"
       fill-rule="evenodd"
       id="path15"
       style="stroke-width:0.1" />
    <path
       d="m 765.72,366 c -0.32,-1.94 -0.32,-3.94 0,-5.88 0.32,1.94 0.32,3.94 0,5.88"
       fill="#263238"
       fill-rule="evenodd"
       id="path16"
       style="stroke-width:0.1" />
    <path
       d="m 765.72,377.64 c -0.32,-1.94 -0.32,-3.94 0,-5.88 0.32,1.94 0.32,3.94 0,5.88"
       fill="#263238"
       fill-rule="evenodd"
       id="path17"
       style="stroke-width:0.1" />
    <path
       d="m 765.72,389.28 c -0.32,-1.94 -0.32,-3.94 0,-5.88 0.32,1.94 0.32,3.94 0,5.88"
       fill="#263238"
       fill-rule="evenodd"
       id="path18"
       style="stroke-width:0.1" />
    <path
       d="m 765.72,400.92 c -0.32,-1.9 -0.32,-3.86 0,-5.76 0.32,1.9 0.32,3.86 0,5.76"
       fill="#263238"
       fill-rule="evenodd"
       id="path19"
       style="stroke-width:0.1" />
    <path
       d="m 765.72,412.68 c -0.32,-1.94 -0.32,-3.94 0,-5.88 0.32,1.94 0.32,3.94 0,5.88"
       fill="#263238"
       fill-rule="evenodd"
       id="path20"
       style="stroke-width:0.1" />
    <path
       d="m 765.72,424.32 c -0.32,-1.94 -0.32,-3.94 0,-5.88 0.32,1.94 0.32,3.94 0,5.88"
       fill="#263238"
       fill-rule="evenodd"
       id="path21"
       style="stroke-width:0.1" />
    <path
       d="m 765.72,435.96 c -0.32,-1.9 -0.32,-3.86 0,-5.76 0.32,1.9 0.32,3.86 0,5.76"
       fill="#263238"
       fill-rule="evenodd"
       id="path22"
       style="stroke-width:0.1" />
    <path
       d="m 783.72,351 h 8.04027 V 332.8801 H 783.72 Z"
       fill="#263238"
       fill-rule="evenodd"
       id="path23"
       style="stroke-width:0.1" />
    <path
       d="m 805.08,351 h 8.0402 V 332.8801 H 805.08 Z"
       fill="#263238"
       fill-rule="evenodd"
       id="path24"
       style="stroke-width:0.1" />
    <path
       d="m 783.72,385.68 h 8.04027 V 367.43981 H 783.72 Z"
       fill="#263238"
       fill-rule="evenodd"
       id="path25"
       style="stroke-width:0.1" />
    <path
       d="m 805.08,385.68 h 8.0402 V 367.43981 H 805.08 Z"
       fill="#263238"
       fill-rule="evenodd"
       id="path26"
       style="stroke-width:0.1" />
    <path
       d="m 783.72,420.24 h 8.04027 V 402.1201 H 783.72 Z"
       fill="#263238"
       fill-rule="evenodd"
       id="path27"
       style="stroke-width:0.1" />
    <path
       d="m 805.08,420.24 h 8.0402 V 402.1201 H 805.08 Z"
       fill="#263238"
       fill-rule="evenodd"
       id="path28"
       style="stroke-width:0.1" />
    <path
       d="m 738.72,438.24 h 78.11996 V 327.48 H 738.72 Z"
       fill="#92e3a9"
       fill-rule="evenodd"
       id="path29"
       style="stroke-width:0.1" />
    <path
       d="m 738.72,438.24 h 78.11996 V 327.48 H 738.72 Z"
       fill-opacity="0.10196"
       fill-rule="evenodd"
       id="path30"
       style="stroke-width:0.1" />
    <path
       d="m 780.24,438.24 h 36.7203 V 327.48 H 780.24 Z"
       fill="#92e3a9"
       fill-rule="evenodd"
       id="path31"
       style="stroke-width:0.1" />
    <path
       d="m 780.24,438.24 h 36.7203 V 327.48 H 780.24 Z"
       fill-opacity="0.30196"
       fill-rule="evenodd"
       id="path32"
       style="stroke-width:0.1" />
    <path
       d="m 755.16,360.72 h 7.0801 V 342.4802 H 755.16 Z"
       fill="#92e3a9"
       fill-rule="evenodd"
       id="path33"
       style="stroke-width:0.1" />
    <path
       d="m 755.16,432.6 h 7.0801 V 414.2398 H 755.16 Z"
       fill="#92e3a9"
       fill-rule="evenodd"
       id="path34"
       style="stroke-width:0.1" />
    <path
       d="m 780.24,367.98 c 0,0.16 -9.3,0.3 -20.75,0.3 -11.46,0 -20.77,-0.14 -20.77,-0.3 0,-0.16 9.29,-0.3 20.77,-0.3 11.47,0 20.75,0.12 20.75,0.3"
       fill="#92e3a9"
       fill-rule="evenodd"
       id="path35"
       style="stroke-width:0.1" />
    <path
       d="m 755.16,396.96 h 7.0801 V 378.59979 H 755.16 Z"
       fill="#92e3a9"
       fill-rule="evenodd"
       id="path36"
       style="stroke-width:0.1" />
    <path
       d="m 780.24,404.22 c 0,0.16 -9.3,0.3 -20.75,0.3 -11.46,0 -20.77,-0.14 -20.77,-0.3 0,-0.16 9.29,-0.3 20.77,-0.3 11.47,0 20.75,0.1 20.75,0.3"
       fill="#92e3a9"
       fill-rule="evenodd"
       id="path37"
       style="stroke-width:0.1" />
    <path
       d="m 755.16,360.72 h 7.0801 V 342.4802 H 755.16 Z"
       fill-rule="evenodd"
       id="path38"
       style="stroke-width:0.1" />
    <path
       d="m 755.16,432.6 h 7.0801 V 414.2398 H 755.16 Z"
       fill-rule="evenodd"
       id="path39"
       style="stroke-width:0.1" />
    <path
       d="m 780.24,367.98 c 0,0.16 -9.3,0.3 -20.75,0.3 -11.46,0 -20.77,-0.14 -20.77,-0.3 0,-0.16 9.29,-0.3 20.77,-0.3 11.47,0 20.75,0.12 20.75,0.3"
       fill-rule="evenodd"
       id="path40"
       style="stroke-width:0.1" />
    <path
       d="m 755.16,396.96 h 7.0801 V 378.59979 H 755.16 Z"
       fill-rule="evenodd"
       id="path41"
       style="stroke-width:0.1" />
    <path
       d="m 780.24,404.22 c 0,0.16 -9.3,0.3 -20.75,0.3 -11.46,0 -20.77,-0.14 -20.77,-0.3 0,-0.16 9.29,-0.3 20.77,-0.3 11.47,0 20.75,0.1 20.75,0.3"
       fill-rule="evenodd"
       id="path42"
       style="stroke-width:0.1" />
    <path
       d="m 788.04,360.72 h 7.08009 V 342.4802 H 788.04 Z"
       fill="#92e3a9"
       fill-rule="evenodd"
       id="path43"
       style="stroke-width:0.1" />
    <path
       d="m 803.28,360.72 h 7.08008 V 342.4802 H 803.28 Z"
       fill="#92e3a9"
       fill-rule="evenodd"
       id="path44"
       style="stroke-width:0.1" />
    <path
       d="m 788.04,395.52 h 7.08009 V 377.2802 H 788.04 Z"
       fill="#92e3a9"
       fill-rule="evenodd"
       id="path45"
       style="stroke-width:0.1" />
    <path
       d="m 803.28,395.52 h 7.08008 V 377.2802 H 803.28 Z"
       fill="#92e3a9"
       fill-rule="evenodd"
       id="path46"
       style="stroke-width:0.1" />
    <path
       d="m 788.04,430.44 h 7.08009 V 412.0802 H 788.04 Z"
       fill="#92e3a9"
       fill-rule="evenodd"
       id="path47"
       style="stroke-width:0.1" />
    <path
       d="m 803.28,430.44 h 7.08008 V 412.0802 H 803.28 Z"
       fill="#92e3a9"
       fill-rule="evenodd"
       id="path48"
       style="stroke-width:0.1" />
    <path
       d="m 788.04,360.72 h 7.08009 V 342.4802 H 788.04 Z"
       fill-rule="evenodd"
       id="path49"
       style="stroke-width:0.1" />
    <path
       d="m 803.28,360.72 h 7.08008 V 342.4802 H 803.28 Z"
       fill-rule="evenodd"
       id="path50"
       style="stroke-width:0.1" />
    <path
       d="m 788.04,395.52 h 7.08009 V 377.2802 H 788.04 Z"
       fill-rule="evenodd"
       id="path51"
       style="stroke-width:0.1" />
    <path
       d="m 803.28,395.52 h 7.08008 V 377.2802 H 803.28 Z"
       fill-rule="evenodd"
       id="path52"
       style="stroke-width:0.1" />
    <path
       d="m 788.04,430.44 h 7.08009 V 412.0802 H 788.04 Z"
       fill-rule="evenodd"
       id="path53"
       style="stroke-width:0.1" />
    <path
       d="m 803.28,430.44 h 7.08008 V 412.0802 H 803.28 Z"
       fill-rule="evenodd"
       id="path54"
       style="stroke-width:0.1" />
    <path
       d="m 732.84,327.6 h 89.8797 v -4.08009 H 732.84 Z"
       fill="#92e3a9"
       fill-rule="evenodd"
       id="path55"
       style="stroke-width:0.1" />
    <path
       d="m 732.84,327.6 h 89.8797 v -4.08009 H 732.84 Z"
       fill-opacity="0.30196"
       fill-rule="evenodd"
       id="path56"
       style="stroke-width:0.1" />
    <path
       d="m 817.44,327.9 c 0,0.17 -17.46,0.3 -38.99,0.3 -21.54,0 -39.01,-0.13 -39.01,-0.3 0,-0.17 17.46,-0.3 38.99,-0.3 21.54,0 39.01,0.14 39.01,0.3"
       fill="#92e3a9"
       fill-rule="evenodd"
       id="path57"
       style="stroke-width:0.1" />
    <path
       d="m 817.44,327.9 c 0,0.17 -17.46,0.3 -38.99,0.3 -21.54,0 -39.01,-0.13 -39.01,-0.3 0,-0.17 17.46,-0.3 38.99,-0.3 21.54,0 39.01,0.14 39.01,0.3"
       fill-rule="evenodd"
       id="path58"
       style="stroke-width:0.1" />
    <path
       d="m 588,436.8 h 34.8 V 279.48 H 588 Z"
       fill="#ff725e"
       fill-rule="evenodd"
       id="path59"
       style="stroke-width:0.1" />
    <path
       d="m 594.48,312.24 h 10.5598 V 290.4002 H 594.48 Z"
       fill="#e0e0e0"
       fill-rule="evenodd"
       id="path60"
       style="stroke-width:0.1" />
    <path
       d="m 600.12,312.24 c -0.06,0 -0.12,-4.89 -0.12,-10.92 0,-6.03 0.06,-10.92 0.12,-10.92 0.06,0 0.12,4.89 0.12,10.92 0,6.03 -0.06,10.92 -0.12,10.92"
       fill="#ff725e"
       fill-rule="evenodd"
       id="path61"
       style="stroke-width:0.1" />
    <path
       d="m 605.04,298.02 c 0,0.1 -2.38,0.18 -5.28,0.18 -2.9,0 -5.28,-0.08 -5.28,-0.18 0,-0.1 2.38,-0.18 5.28,-0.18 2.91,0 5.28,0.08 5.28,0.18"
       fill="#ff725e"
       fill-rule="evenodd"
       id="path62"
       style="stroke-width:0.1" />
    <path
       d="m 605.16,305.82 c 0,0.1 -2.39,0.18 -5.34,0.18 -2.95,0 -5.34,-0.08 -5.34,-0.18 0,-0.1 2.39,-0.18 5.34,-0.18 2.95,0 5.34,0.08 5.34,0.18"
       fill="#ff725e"
       fill-rule="evenodd"
       id="path63"
       style="stroke-width:0.1" />
    <path
       d="m 612.24,436.8 h 25.3203 V 279.48 H 612.24 Z"
       fill="#ff725e"
       fill-rule="evenodd"
       id="path64"
       style="stroke-width:0.1" />
    <path
       d="m 637.56,436.8 -25.44,-0.08 V 279.84 h 25.35 l 0.09,156.96"
       fill-opacity="0.10196"
       fill-rule="evenodd"
       id="path65"
       style="stroke-width:0.1" />
    <path
       d="m 619.44,312.24 h 10.5602 V 290.4002 H 619.44 Z"
       fill="#e0e0e0"
       fill-rule="evenodd"
       id="path66"
       style="stroke-width:0.1" />
    <path
       d="m 625.08,312.24 c -0.07,0 -0.12,-4.89 -0.12,-10.92 0,-6.03 0.05,-10.92 0.12,-10.92 0.07,0 0.12,4.89 0.12,10.92 0,6.03 -0.06,10.92 -0.12,10.92"
       fill="#ff725e"
       fill-rule="evenodd"
       id="path67"
       style="stroke-width:0.1" />
    <path
       d="m 630,298.02 c 0,0.1 -2.38,0.18 -5.28,0.18 -2.9,0 -5.28,-0.08 -5.28,-0.18 0,-0.1 2.38,-0.18 5.28,-0.18 2.9,0 5.28,0.08 5.28,0.18"
       fill="#ff725e"
       fill-rule="evenodd"
       id="path68"
       style="stroke-width:0.1" />
    <path
       d="m 630.12,305.82 c 0,0.1 -2.39,0.18 -5.34,0.18 -2.95,0 -5.34,-0.08 -5.34,-0.18 0,-0.1 2.39,-0.18 5.34,-0.18 2.95,0 5.34,0.08 5.34,0.18"
       fill="#ff725e"
       fill-rule="evenodd"
       id="path69"
       style="stroke-width:0.1" />
    <path
       d="m 619.44,339.12 h 10.5602 V 317.2802 H 619.44 Z"
       fill="#e0e0e0"
       fill-rule="evenodd"
       id="path70"
       style="stroke-width:0.1" />
    <path
       d="m 625.08,339.12 c -0.07,0 -0.12,-4.89 -0.12,-10.92 0,-6.03 0.05,-10.92 0.12,-10.92 0.07,0 0.12,4.89 0.12,10.92 0,6.04 -0.06,10.92 -0.12,10.92"
       fill="#ff725e"
       fill-rule="evenodd"
       id="path71"
       style="stroke-width:0.1" />
    <path
       d="m 630,324.84 c 0,0.06 -2.38,0.12 -5.28,0.12 -2.9,0 -5.28,-0.06 -5.28,-0.12 0,-0.06 2.38,-0.12 5.28,-0.12 2.9,0 5.28,0.05 5.28,0.12"
       fill="#ff725e"
       fill-rule="evenodd"
       id="path72"
       style="stroke-width:0.1" />
    <path
       d="m 630.12,332.64 c 0,0.06 -2.39,0.12 -5.34,0.12 -2.95,0 -5.34,-0.06 -5.34,-0.12 0,-0.06 2.39,-0.12 5.34,-0.12 2.95,0 5.34,0.05 5.34,0.12"
       fill="#ff725e"
       fill-rule="evenodd"
       id="path73"
       style="stroke-width:0.1" />
    <path
       d="m 588,436.8 h 24.1199 V 279.48 H 588 Z"
       fill-opacity="0.30196"
       fill-rule="evenodd"
       id="path74"
       style="stroke-width:0.1" />
    <path
       d="m 643.2,438.72 h 84.7199 V 210.6 H 643.2 Z"
       fill="#ebebeb"
       fill-rule="evenodd"
       id="path75"
       style="stroke-width:0.1" />
    <path
       d="m 685.56,438.72 h 42.3598 V 210.6 H 685.56 Z"
       fill="#e0e0e0"
       fill-rule="evenodd"
       id="path76"
       style="stroke-width:0.1" />
    <path
       d="m 652.92,210.6 h 29.8801 V 183.4801 H 652.92 Z"
       fill="#ebebeb"
       fill-rule="evenodd"
       id="path77"
       style="stroke-width:0.1" />
    <path
       d="m 675.72,210.6 h 7.0801 V 183.4801 H 675.72 Z"
       fill="#e0e0e0"
       fill-rule="evenodd"
       id="path78"
       style="stroke-width:0.1" />
    <path
       d="m 636.12,210.6 h 94.31996 v -1.56016 H 636.12 Z"
       fill="#e0e0e0"
       fill-rule="evenodd"
       id="path79"
       style="stroke-width:0.1" />
    <path
       d="m 660,237.96 h 7.0801 V 222.4799 H 660 Z"
       fill="#ffffff"
       fill-rule="evenodd"
       id="path80"
       style="stroke-width:0.1" />
    <path
       d="m 685.56,244.14 c 0,0.17 -9.48,0.3 -21.18,0.3 -11.69,0 -21.18,-0.13 -21.18,-0.3 0,-0.16 9.48,-0.3 21.18,-0.3 11.71,0 21.18,0.13 21.18,0.3"
       fill="#e0e0e0"
       fill-rule="evenodd"
       id="path81"
       style="stroke-width:0.1" />
    <path
       d="m 702.72,237.96 h 7.0801 V 222.4799 H 702.72 Z"
       fill="#f5f5f5"
       fill-rule="evenodd"
       id="path82"
       style="stroke-width:0.1" />
    <path
       d="m 728.28,244.14 c 0,0.17 -9.48,0.3 -21.18,0.3 -11.69,0 -21.18,-0.13 -21.18,-0.3 0,-0.16 9.48,-0.3 21.18,-0.3 11.71,0 21.18,0.13 21.18,0.3"
       fill="#ebebeb"
       fill-rule="evenodd"
       id="path83"
       style="stroke-width:0.1" />
    <path
       d="m 702.72,268.92 h 7.0801 v -15.6 H 702.72 Z"
       fill="#f5f5f5"
       fill-rule="evenodd"
       id="path84"
       style="stroke-width:0.1" />
    <path
       d="m 728.28,274.98 c 0,0.16 -9.48,0.3 -21.18,0.3 -11.69,0 -21.18,-0.14 -21.18,-0.3 0,-0.17 9.48,-0.3 21.18,-0.3 11.71,0 21.18,0.14 21.18,0.3"
       fill="#ebebeb"
       fill-rule="evenodd"
       id="path85"
       style="stroke-width:0.1" />
    <path
       d="m 702.72,300.72 h 7.0801 v -15.6 H 702.72 Z"
       fill="#f5f5f5"
       fill-rule="evenodd"
       id="path86"
       style="stroke-width:0.1" />
    <path
       d="m 728.28,306.78 c 0,0.16 -9.48,0.3 -21.18,0.3 -11.69,0 -21.18,-0.14 -21.18,-0.3 0,-0.17 9.48,-0.3 21.18,-0.3 11.71,0 21.18,0.14 21.18,0.3"
       fill="#ebebeb"
       fill-rule="evenodd"
       id="path87"
       style="stroke-width:0.1" />
    <path
       d="m 702.72,332.52 h 7.0801 v -15.6 H 702.72 Z"
       fill="#f5f5f5"
       fill-rule="evenodd"
       id="path88"
       style="stroke-width:0.1" />
    <path
       d="m 728.28,338.58 c 0,0.16 -9.48,0.3 -21.18,0.3 -11.69,0 -21.18,-0.14 -21.18,-0.3 0,-0.17 9.48,-0.3 21.18,-0.3 11.71,0 21.18,0.14 21.18,0.3"
       fill="#ebebeb"
       fill-rule="evenodd"
       id="path89"
       style="stroke-width:0.1" />
    <path
       d="m 702.72,363.36 h 7.0801 V 347.8799 H 702.72 Z"
       fill="#f5f5f5"
       fill-rule="evenodd"
       id="path90"
       style="stroke-width:0.1" />
    <path
       d="m 728.28,369.54 c 0,0.16 -9.48,0.3 -21.18,0.3 -11.69,0 -21.18,-0.14 -21.18,-0.3 0,-0.15 9.48,-0.3 21.18,-0.3 11.71,0 21.18,0.14 21.18,0.3"
       fill="#ebebeb"
       fill-rule="evenodd"
       id="path91"
       style="stroke-width:0.1" />
    <path
       d="m 702.72,394.44 h 7.0801 v -15.6 H 702.72 Z"
       fill="#f5f5f5"
       fill-rule="evenodd"
       id="path92"
       style="stroke-width:0.1" />
    <path
       d="m 702.72,425.88 h 7.0801 v -15.6 H 702.72 Z"
       fill="#f5f5f5"
       fill-rule="evenodd"
       id="path93"
       style="stroke-width:0.1" />
    <path
       d="m 728.28,400.5 c 0,0.16 -9.48,0.3 -21.18,0.3 -11.69,0 -21.18,-0.14 -21.18,-0.3 0,-0.17 9.48,-0.3 21.18,-0.3 11.71,0 21.18,0.13 21.18,0.3"
       fill="#ebebeb"
       fill-rule="evenodd"
       id="path94"
       style="stroke-width:0.1" />
    <path
       d="m 660,269.28 h 7.0801 V 253.7999 H 660 Z"
       fill="#ffffff"
       fill-rule="evenodd"
       id="path95"
       style="stroke-width:0.1" />
    <path
       d="m 685.56,275.46 c 0,0.16 -9.48,0.3 -21.18,0.3 -11.69,0 -21.18,-0.14 -21.18,-0.3 0,-0.15 9.48,-0.3 21.18,-0.3 11.71,0 21.18,0.14 21.18,0.3"
       fill="#e0e0e0"
       fill-rule="evenodd"
       id="path96"
       style="stroke-width:0.1" />
    <path
       d="m 660,300.72 h 7.0801 v -15.6 H 660 Z"
       fill="#ffffff"
       fill-rule="evenodd"
       id="path97"
       style="stroke-width:0.1" />
    <path
       d="m 685.56,306.78 c 0,0.16 -9.48,0.3 -21.18,0.3 -11.69,0 -21.18,-0.14 -21.18,-0.3 0,-0.15 9.48,-0.3 21.18,-0.3 11.71,0 21.18,0.14 21.18,0.3"
       fill="#e0e0e0"
       fill-rule="evenodd"
       id="path98"
       style="stroke-width:0.1" />
    <path
       d="m 660,332.04 h 7.0801 v -15.6 H 660 Z"
       fill="#ffffff"
       fill-rule="evenodd"
       id="path99"
       style="stroke-width:0.1" />
    <path
       d="m 685.56,338.1 c 0,0.16 -9.48,0.3 -21.18,0.3 -11.69,0 -21.18,-0.14 -21.18,-0.3 0,-0.15 9.48,-0.3 21.18,-0.3 11.71,0 21.18,0.14 21.18,0.3"
       fill="#e0e0e0"
       fill-rule="evenodd"
       id="path100"
       style="stroke-width:0.1" />
    <path
       d="m 660,363.36 h 7.0801 V 347.8799 H 660 Z"
       fill="#ffffff"
       fill-rule="evenodd"
       id="path101"
       style="stroke-width:0.1" />
    <path
       d="m 685.56,369.54 c 0,0.16 -9.48,0.3 -21.18,0.3 -11.69,0 -21.18,-0.14 -21.18,-0.3 0,-0.15 9.48,-0.3 21.18,-0.3 11.71,0 21.18,0.14 21.18,0.3"
       fill="#e0e0e0"
       fill-rule="evenodd"
       id="path102"
       style="stroke-width:0.1" />
    <path
       d="m 660,394.8 h 7.0801 V 379.2 H 660 Z"
       fill="#ffffff"
       fill-rule="evenodd"
       id="path103"
       style="stroke-width:0.1" />
    <path
       d="m 685.56,400.86 c 0,0.16 -9.48,0.3 -21.18,0.3 -11.69,0 -21.18,-0.14 -21.18,-0.3 0,-0.15 9.48,-0.3 21.18,-0.3 11.71,0 21.18,0.14 21.18,0.3"
       fill="#e0e0e0"
       fill-rule="evenodd"
       id="path104"
       style="stroke-width:0.1" />
    <path
       d="m 660,426.12 h 7.0801 v -15.6 H 660 Z"
       fill="#ffffff"
       fill-rule="evenodd"
       id="path105"
       style="stroke-width:0.1" />
    <path
       d="m 672.48,194.47 h -5.3 v -5.11 h -5.12 v 5.11 h -5.3 v 4.91 h 5.3 v 5.1 h 5.12 v -5.1 h 5.3 v -4.91"
       fill="#c00000"
       fill-rule="evenodd"
       id="path106"
       style="stroke-width:0.1" />
    <path
       d="M 505.2,359.52 H 684.6 V 347.63989 H 505.2 Z"
       fill="#90caf9"
       fill-rule="evenodd"
       id="path107"
       style="stroke-width:0.1" />
    <path
       d="M 505.2,359.52 H 684.6 V 347.63989 H 505.2 Z"
       fill="#ffffff"
       fill-opacity="0.70196"
       fill-rule="evenodd"
       id="path108"
       style="stroke-width:0.1" />
    <path
       d="M 684.6,347.64 H 505.2 V 351 l 179.4,-1.24 v -2.12"
       fill="#90caf9"
       fill-opacity="0.50196"
       fill-rule="evenodd"
       id="path109"
       style="stroke-width:0.1" />
    <path
       d="m 503.16,347.64 h 183.36 v -2.51992 H 503.16 Z"
       fill="#90caf9"
       fill-rule="evenodd"
       id="path110"
       style="stroke-width:0.1" />
    <path
       d="M 493.56,439.08 H 696.12 V 362.0398 H 493.56 Z"
       fill="#90caf9"
       fill-rule="evenodd"
       id="path111"
       style="stroke-width:0.1" />
    <path
       d="M 493.56,439.08 H 696.12 V 362.0398 H 493.56 Z"
       fill="#ffffff"
       fill-opacity="0.70196"
       fill-rule="evenodd"
       id="path112"
       style="stroke-width:0.1" />
    <path
       d="M 493.56,439.08 H 696.12 V 428.0398 H 493.56 Z"
       fill="#90caf9"
       fill-opacity="0.50196"
       fill-rule="evenodd"
       id="path113"
       style="stroke-width:0.1" />
    <path
       d="m 491.64,362.04 h 206.4 v -2.51992 h -206.4 z"
       fill="#90caf9"
       fill-rule="evenodd"
       id="path114"
       style="stroke-width:0.1" />
    <path
       d="M 696.12,362.04 H 493.56 v 3.36 l 202.56,-1.24 v -2.12"
       fill="#90caf9"
       fill-opacity="0.50196"
       fill-rule="evenodd"
       id="path115"
       style="stroke-width:0.1" />
    <path
       d="m 497.28,382.32 h 8.88008 V 369.23989 H 497.28 Z"
       fill="#37474f"
       fill-rule="evenodd"
       id="path116"
       style="stroke-width:0.1" />
    <path
       d="m 506.88,382.32 h 8.88008 V 369.23989 H 506.88 Z"
       fill="#37474f"
       fill-rule="evenodd"
       id="path117"
       style="stroke-width:0.1" />
    <path
       d="m 516.36,382.32 h 8.8797 V 369.23989 H 516.36 Z"
       fill="#37474f"
       fill-rule="evenodd"
       id="path118"
       style="stroke-width:0.1" />
    <path
       d="m 528.48,382.32 h 8.88008 V 369.23989 H 528.48 Z"
       fill="#37474f"
       fill-rule="evenodd"
       id="path119"
       style="stroke-width:0.1" />
    <path
       d="m 538.08,382.32 h 8.88008 V 369.23989 H 538.08 Z"
       fill="#37474f"
       fill-rule="evenodd"
       id="path120"
       style="stroke-width:0.1" />
    <path
       d="m 547.56,382.32 h 8.8797 V 369.23989 H 547.56 Z"
       fill="#37474f"
       fill-rule="evenodd"
       id="path121"
       style="stroke-width:0.1" />
    <path
       d="m 497.28,399.84 h 8.88008 V 386.8802 H 497.28 Z"
       fill="#37474f"
       fill-rule="evenodd"
       id="path122"
       style="stroke-width:0.1" />
    <path
       d="m 506.88,399.84 h 8.88008 V 386.8802 H 506.88 Z"
       fill="#37474f"
       fill-rule="evenodd"
       id="path123"
       style="stroke-width:0.1" />
    <path
       d="m 516.36,399.84 h 8.8797 V 386.8802 H 516.36 Z"
       fill="#37474f"
       fill-rule="evenodd"
       id="path124"
       style="stroke-width:0.1" />
    <path
       d="m 528.48,399.84 h 8.88008 V 386.8802 H 528.48 Z"
       fill="#37474f"
       fill-rule="evenodd"
       id="path125"
       style="stroke-width:0.1" />
    <path
       d="m 538.08,399.84 h 8.88008 V 386.8802 H 538.08 Z"
       fill="#37474f"
       fill-rule="evenodd"
       id="path126"
       style="stroke-width:0.1" />
    <path
       d="m 547.56,399.84 h 8.8797 V 386.8802 H 547.56 Z"
       fill="#37474f"
       fill-rule="evenodd"
       id="path127"
       style="stroke-width:0.1" />
    <path
       d="m 497.28,417.36 h 8.88008 V 404.39979 H 497.28 Z"
       fill="#37474f"
       fill-rule="evenodd"
       id="path128"
       style="stroke-width:0.1" />
    <path
       d="m 506.88,417.36 h 8.88008 V 404.39979 H 506.88 Z"
       fill="#37474f"
       fill-rule="evenodd"
       id="path129"
       style="stroke-width:0.1" />
    <path
       d="m 516.36,417.36 h 8.8797 V 404.39979 H 516.36 Z"
       fill="#37474f"
       fill-rule="evenodd"
       id="path130"
       style="stroke-width:0.1" />
    <path
       d="m 528.48,417.36 h 8.88008 V 404.39979 H 528.48 Z"
       fill="#37474f"
       fill-rule="evenodd"
       id="path131"
       style="stroke-width:0.1" />
    <path
       d="m 538.08,417.36 h 8.88008 V 404.39979 H 538.08 Z"
       fill="#37474f"
       fill-rule="evenodd"
       id="path132"
       style="stroke-width:0.1" />
    <path
       d="m 547.56,417.36 h 8.8797 V 404.39979 H 547.56 Z"
       fill="#37474f"
       fill-rule="evenodd"
       id="path133"
       style="stroke-width:0.1" />
    <path
       d="m 633.24,382.32 h 8.88009 V 369.23989 H 633.24 Z"
       fill="#37474f"
       fill-rule="evenodd"
       id="path134"
       style="stroke-width:0.1" />
    <path
       d="m 642.72,382.32 h 9 v -13.08011 h -9 z"
       fill="#37474f"
       fill-rule="evenodd"
       id="path135"
       style="stroke-width:0.1" />
    <path
       d="m 652.32,382.32 h 8.8801 V 369.23989 H 652.32 Z"
       fill="#37474f"
       fill-rule="evenodd"
       id="path136"
       style="stroke-width:0.1" />
    <path
       d="m 664.44,382.32 h 8.88009 V 369.23989 H 664.44 Z"
       fill="#37474f"
       fill-rule="evenodd"
       id="path137"
       style="stroke-width:0.1" />
    <path
       d="m 674.04,382.32 h 8.88009 V 369.23989 H 674.04 Z"
       fill="#37474f"
       fill-rule="evenodd"
       id="path138"
       style="stroke-width:0.1" />
    <path
       d="m 683.52,382.32 h 8.8801 V 369.23989 H 683.52 Z"
       fill="#37474f"
       fill-rule="evenodd"
       id="path139"
       style="stroke-width:0.1" />
    <path
       d="m 633.24,399.84 h 8.88009 V 386.8802 H 633.24 Z"
       fill="#37474f"
       fill-rule="evenodd"
       id="path140"
       style="stroke-width:0.1" />
    <path
       d="m 642.72,399.84 h 9 v -12.9598 h -9 z"
       fill="#37474f"
       fill-rule="evenodd"
       id="path141"
       style="stroke-width:0.1" />
    <path
       d="m 652.32,399.84 h 8.8801 V 386.8802 H 652.32 Z"
       fill="#37474f"
       fill-rule="evenodd"
       id="path142"
       style="stroke-width:0.1" />
    <path
       d="m 664.44,399.84 h 8.88009 V 386.8802 H 664.44 Z"
       fill="#37474f"
       fill-rule="evenodd"
       id="path143"
       style="stroke-width:0.1" />
    <path
       d="m 674.04,399.84 h 8.88009 V 386.8802 H 674.04 Z"
       fill="#37474f"
       fill-rule="evenodd"
       id="path144"
       style="stroke-width:0.1" />
    <path
       d="m 683.52,399.84 h 8.8801 V 386.8802 H 683.52 Z"
       fill="#37474f"
       fill-rule="evenodd"
       id="path145"
       style="stroke-width:0.1" />
    <path
       d="m 633.24,417.36 h 8.88009 V 404.39979 H 633.24 Z"
       fill="#37474f"
       fill-rule="evenodd"
       id="path146"
       style="stroke-width:0.1" />
    <path
       d="m 642.72,417.36 h 9 v -12.96021 h -9 z"
       fill="#37474f"
       fill-rule="evenodd"
       id="path147"
       style="stroke-width:0.1" />
    <path
       d="m 652.32,417.36 h 8.8801 V 404.39979 H 652.32 Z"
       fill="#37474f"
       fill-rule="evenodd"
       id="path148"
       style="stroke-width:0.1" />
    <path
       d="m 664.44,417.36 h 8.88009 V 404.39979 H 664.44 Z"
       fill="#37474f"
       fill-rule="evenodd"
       id="path149"
       style="stroke-width:0.1" />
    <path
       d="m 674.04,417.36 h 8.88009 V 404.39979 H 674.04 Z"
       fill="#37474f"
       fill-rule="evenodd"
       id="path150"
       style="stroke-width:0.1" />
    <path
       d="m 683.52,417.36 h 8.8801 V 404.39979 H 683.52 Z"
       fill="#37474f"
       fill-rule="evenodd"
       id="path151"
       style="stroke-width:0.1" />
    <path
       d="m 493.56,385.32 h 202.56 v -1.55977 H 493.56 Z"
       fill="#ffffff"
       fill-rule="evenodd"
       id="path152"
       style="stroke-width:0.1" />
    <path
       d="m 493.56,402.84 h 202.56 v -1.43984 H 493.56 Z"
       fill="#ffffff"
       fill-rule="evenodd"
       id="path153"
       style="stroke-width:0.1" />
    <path
       d="m 493.56,420.48 h 202.56 v -1.56015 H 493.56 Z"
       fill="#ffffff"
       fill-rule="evenodd"
       id="path154"
       style="stroke-width:0.1" />
    <path
       d="M 696.12,385.32 H 493.56 v 1.08 l 202.56,-0.54 v -0.54"
       fill="#90caf9"
       fill-opacity="0.50196"
       fill-rule="evenodd"
       id="path155"
       style="stroke-width:0.1" />
    <path
       d="M 696.12,402.84 H 493.56 v 1.08 l 202.56,-0.54 v -0.54"
       fill="#90caf9"
       fill-opacity="0.50196"
       fill-rule="evenodd"
       id="path156"
       style="stroke-width:0.1" />
    <path
       d="M 696.12,420.48 H 493.56 v 1.08 l 202.56,-0.54 v -0.54"
       fill="#90caf9"
       fill-opacity="0.50196"
       fill-rule="evenodd"
       id="path157"
       style="stroke-width:0.1" />
    <path
       d="m 497.28,380.18 8.89,-8.9 v 3.95 l -7.04,7.04 h -1.85 z m 10.92,-10.94 -1.39,1.39 v 3.95 l 5.32,-5.33 z m 23.8,48.23 h 3.94 l 10.98,-11.01 v -2.02 H 545 Z m 15.6,-11.67 1.36,-1.36 h -1.36 z m 1.98,-5.93 h 3.94 l 2.97,-2.97 v -3.95 z m 86.64,-30.63 -3.01,3.02 v 3.95 l 6.96,-6.97 z m 5.87,48.23 v -0.97 l -0.97,0.97 z m 0.66,0 h 2.32 l 6.59,-6.59 v -3.95 l -8.89,8.9 z m 11.38,-13.03 -1.83,1.83 v 3.95 l 5.78,-5.78 z m 7.06,-4.57 v -2.5 l -2.5,2.5 z m 3.21,-5.72 v 3.95 l 8.88,-8.9 v -2.34 h -1.6 z m 9.55,-5.61 1.69,-1.68 h -1.68 z m 6.24,-6.26 2.65,-2.65 v -3.96 l -6.59,6.6 z m 9.06,-13.03 -5.75,5.77 v 3.95 l 8.88,-8.9 v -0.82 z m -1.21,48.23 h 3.95 l 0.39,-0.4 v -3.96 z M 497.3,387.64 v 1.98 l 2.78,-2.77 h -2.01 z m 7.32,-5.36 1.57,-1.57 v -1.97 l -3.57,3.53 z m 11.03,-13.03 -8.8,8.82 v 1.98 l 8.88,-8.9 v -1.9 z m 0.75,0 v 1.24 l 1.23,-1.24 z M 633.21,392 v 1.97 l 7.11,-7.12 h -1.97 z m 11.67,-9.73 6.76,-6.77 v -1.98 l -8.75,8.75 z m 11.04,-13.03 -3.64,3.62 v 1.97 l 5.59,-5.59 z m 20.72,48.23 6.21,-6.22 v -1.98 l -8.18,8.2 z m 11.04,-13.03 -4.16,4.16 v 1.98 l 6.14,-6.15 z m 4.56,-4.57 h 0.16 v -0.16 z m -40.62,17.6 v -1.86 l -1.85,1.86 z m 0.66,-0.55 8.89,-8.9 v -1.98 l -8.89,8.9 z m 12.12,-12.13 0.35,-0.35 h -0.35 z m 4.91,-4.92 3.97,-3.98 v -1.98 l -5.94,5.96 z m 11.03,-13.01 -6.39,6.4 v 1.98 l 8.36,-8.38 z m 4.56,-4.57 h 1.98 l 5.5,-5.51 v -1.98 z m -187.62,10.82 v 0.45 l 6.69,-6.7 h -0.45 z m 23.82,-23.86 -13.01,13.02 h 0.45 l 7.17,-7.19 0.67,-0.66 5.17,-5.18 z m 18.67,48.23 7.15,-7.17 v -0.45 l -7.6,7.62 z m 12.56,-13.03 -4.75,4.75 v 0.45 l 5.21,-5.21 z m -35.34,13.02 8.27,-8.29 v -0.44 l -8.72,8.74 z m 12.56,-13.03 -1.06,1.06 v 0.46 l 1.51,-1.51 z m 5.01,-4.57 2.81,-2.82 v -0.47 l -3.26,3.27 z m 3.47,-3.94 v 0.46 l 8.88,-8.9 v -0.46 z m 13.64,-13.66 h 0.45 l 4.34,-4.35 v -0.44 z m -51.33,35.2 5.83,-5.84 v -1.97 l -7.8,7.81 z m 11.04,-13.03 -4.55,4.55 v 1.98 l 6.52,-6.53 z m 5,-4.57 h 1.53 l 7.35,-7.36 v -1.98 l -8.88,8.9 z m 12.56,-13.01 -0.46,0.45 v 1.98 l 2.43,-2.43 z m 6.53,-4.57 1.9,-1.9 v -1.98 l -3.87,3.86 z m 11.04,-13.03 -8.48,8.49 v 1.97 l 8.88,-8.89 v -1.57 z m 1.07,0 v 0.9 l 0.9,-0.9 z m -5.01,48.21 4.35,-4.37 v -1.97 l -6.33,6.34 z m 11.03,-13.03 -6.02,6.04 v 1.98 l 7.98,-7.99 z m 0.05,13.03 h 0.45 l 2.37,-2.38 v -0.44 z m 84.64,0 3.78,-3.79 v -0.45 l -4.24,4.24 z m 12.56,-13.03 -8.11,8.12 v 0.46 l 8.56,-8.58 z m 5.02,-4.57 5.3,-5.32 v -0.45 l -5.75,5.77 z m 12.55,-13.03 -4.02,4.03 v 0.45 l 4.47,-4.46 z m 4.86,-4.57 v -0.3 l -0.31,0.3 z m 0.66,-0.52 8.88,-8.89 v -0.46 l -8.87,8.9 z m 12.04,-12.5 -2.49,2.5 v 0.45 l 2.94,-2.95 z m -12.03,41.28 -0.67,0.66 -6.26,6.28 h 0.45 l 5.81,-5.83 0.67,-0.66 6.54,-6.54 h -0.45 z m 10.64,-10.66 h 0.45 l 7.34,-7.35 v -0.45 z m 1.15,17.6 h 0.45 l 6.19,-6.2 v -0.44"
       fill="#ffffff"
       fill-opacity="0.2"
       fill-rule="evenodd"
       id="path158"
       style="stroke-width:0.1" />
    <path
       d="m 558.72,439.08 h 1.2 v -91.44 h -2.52 l 1.32,91.44"
       fill="#90caf9"
       fill-opacity="0.50196"
       fill-rule="evenodd"
       id="path159"
       style="stroke-width:0.1" />
    <path
       d="m 630.96,439.08 h -1.2 v -91.44 h 2.52 l -1.32,91.44"
       fill="#90caf9"
       fill-opacity="0.50196"
       fill-rule="evenodd"
       id="path160"
       style="stroke-width:0.1" />
    <path
       d="m 570.48,320.28 h 48.7199 v -9.71992 H 570.48 Z"
       fill="#90caf9"
       fill-rule="evenodd"
       id="path161"
       style="stroke-width:0.1" />
    <path
       d="m 570.48,320.28 h 48.7199 v -9.71992 H 570.48 Z"
       fill="#ffffff"
       fill-opacity="0.6"
       fill-rule="evenodd"
       id="path162"
       style="stroke-width:0.1" />
    <path
       d="m 619.2,310.56 h -48.72 v 3.36 l 48.72,-1.24 v -2.12"
       fill="#90caf9"
       fill-opacity="0.50196"
       fill-rule="evenodd"
       id="path163"
       style="stroke-width:0.1" />
    <path
       d="m 568.56,310.56 h 52.5598 v -2.5203 H 568.56 Z"
       fill="#90caf9"
       fill-rule="evenodd"
       id="path164"
       style="stroke-width:0.1" />
    <path
       d="m 559.92,439.08 h 69.8402 V 328.8 H 559.92 Z"
       fill="#90caf9"
       fill-rule="evenodd"
       id="path165"
       style="stroke-width:0.1" />
    <path
       d="m 559.92,439.08 h 69.8402 V 328.8 H 559.92 Z"
       fill="#ffffff"
       fill-opacity="0.70196"
       fill-rule="evenodd"
       id="path166"
       style="stroke-width:0.1" />
    <path
       d="m 559.92,439.08 h 6.4801 V 322.32 H 559.92 Z"
       fill="#90caf9"
       fill-rule="evenodd"
       id="path167"
       style="stroke-width:0.1" />
    <path
       d="m 559.92,439.08 h 6.4801 V 322.32 H 559.92 Z"
       fill="#ffffff"
       fill-opacity="0.8"
       fill-rule="evenodd"
       id="path168"
       style="stroke-width:0.1" />
    <path
       d="m 623.28,439.08 h 6.48008 V 322.32 H 623.28 Z"
       fill="#90caf9"
       fill-rule="evenodd"
       id="path169"
       style="stroke-width:0.1" />
    <path
       d="m 623.28,439.08 h 6.48008 V 322.32 H 623.28 Z"
       fill="#ffffff"
       fill-opacity="0.8"
       fill-rule="evenodd"
       id="path170"
       style="stroke-width:0.1" />
    <path
       d="m 566.4,328.8 h 56.8801 V 318.2398 H 566.4 Z"
       fill="#90caf9"
       fill-rule="evenodd"
       id="path171"
       style="stroke-width:0.1" />
    <path
       d="m 622.07,439.08 h 1.21 V 328.8 l -2.52,3.61 1.31,106.67"
       fill="#90caf9"
       fill-opacity="0.50196"
       fill-rule="evenodd"
       id="path172"
       style="stroke-width:0.1" />
    <path
       d="M 567.61,439.08 H 566.4 V 328.8 l 2.52,3.61 -1.31,106.67"
       fill="#90caf9"
       fill-opacity="0.50196"
       fill-rule="evenodd"
       id="path173"
       style="stroke-width:0.1" />
    <path
       d="m 566.4,349.8 h 56.8801 v -1.43984 H 566.4 Z"
       fill="#ffffff"
       fill-rule="evenodd"
       id="path174"
       style="stroke-width:0.1" />
    <path
       d="M 623.28,349.8 H 566.4 v 1.08 l 56.88,-0.54 v -0.54"
       fill="#90caf9"
       fill-opacity="0.50196"
       fill-rule="evenodd"
       id="path175"
       style="stroke-width:0.1" />
    <path
       d="M 623.28,369.96 H 566.4 v 1.08 l 56.88,-0.54 v -0.54"
       fill="#90caf9"
       fill-opacity="0.50196"
       fill-rule="evenodd"
       id="path176"
       style="stroke-width:0.1" />
    <path
       d="M 623.28,390.24 H 566.4 v 1.08 l 56.88,-0.54 v -0.54"
       fill="#90caf9"
       fill-opacity="0.50196"
       fill-rule="evenodd"
       id="path177"
       style="stroke-width:0.1" />
    <path
       d="m 566.4,369.96 h 56.8801 v -1.44024 H 566.4 Z"
       fill="#ffffff"
       fill-rule="evenodd"
       id="path178"
       style="stroke-width:0.1" />
    <path
       d="m 572.04,345.48 h 8.88009 V 332.5198 H 572.04 Z"
       fill="#37474f"
       fill-rule="evenodd"
       id="path179"
       style="stroke-width:0.1" />
    <path
       d="m 584.28,345.48 h 8.88008 V 332.5198 H 584.28 Z"
       fill="#37474f"
       fill-rule="evenodd"
       id="path180"
       style="stroke-width:0.1" />
    <path
       d="m 596.52,345.48 h 8.8801 V 332.5198 H 596.52 Z"
       fill="#37474f"
       fill-rule="evenodd"
       id="path181"
       style="stroke-width:0.1" />
    <path
       d="m 608.76,345.48 h 8.8797 V 332.5198 H 608.76 Z"
       fill="#37474f"
       fill-rule="evenodd"
       id="path182"
       style="stroke-width:0.1" />
    <path
       d="m 572.04,365.64 h 8.88009 V 352.6802 H 572.04 Z"
       fill="#37474f"
       fill-rule="evenodd"
       id="path183"
       style="stroke-width:0.1" />
    <path
       d="m 584.28,365.64 h 8.88008 V 352.6802 H 584.28 Z"
       fill="#37474f"
       fill-rule="evenodd"
       id="path184"
       style="stroke-width:0.1" />
    <path
       d="m 596.52,365.64 h 8.8801 V 352.6802 H 596.52 Z"
       fill="#37474f"
       fill-rule="evenodd"
       id="path185"
       style="stroke-width:0.1" />
    <path
       d="m 608.76,365.64 h 8.8797 V 352.6802 H 608.76 Z"
       fill="#37474f"
       fill-rule="evenodd"
       id="path186"
       style="stroke-width:0.1" />
    <path
       d="m 572.04,385.8 h 8.88009 V 372.8398 H 572.04 Z"
       fill="#37474f"
       fill-rule="evenodd"
       id="path187"
       style="stroke-width:0.1" />
    <path
       d="m 584.28,385.8 h 8.88008 V 372.8398 H 584.28 Z"
       fill="#37474f"
       fill-rule="evenodd"
       id="path188"
       style="stroke-width:0.1" />
    <path
       d="m 596.52,385.8 h 8.8801 V 372.8398 H 596.52 Z"
       fill="#37474f"
       fill-rule="evenodd"
       id="path189"
       style="stroke-width:0.1" />
    <path
       d="m 608.76,385.8 h 8.8797 V 372.8398 H 608.76 Z"
       fill="#37474f"
       fill-rule="evenodd"
       id="path190"
       style="stroke-width:0.1" />
    <path
       d="m 572.04,406.08 h 8.88009 V 392.9999 H 572.04 Z"
       fill="#37474f"
       fill-rule="evenodd"
       id="path191"
       style="stroke-width:0.1" />
    <path
       d="m 584.28,406.08 h 8.88008 V 392.9999 H 584.28 Z"
       fill="#37474f"
       fill-rule="evenodd"
       id="path192"
       style="stroke-width:0.1" />
    <path
       d="m 596.52,406.08 h 8.8801 V 392.9999 H 596.52 Z"
       fill="#37474f"
       fill-rule="evenodd"
       id="path193"
       style="stroke-width:0.1" />
    <path
       d="m 608.76,406.08 h 8.8797 V 392.9999 H 608.76 Z"
       fill="#37474f"
       fill-rule="evenodd"
       id="path194"
       style="stroke-width:0.1" />
    <path
       d="M 623.28,390.24 H 566.4 v 1.08 l 56.88,-0.54 v -0.54"
       fill="#90caf9"
       fill-opacity="0.50196"
       fill-rule="evenodd"
       id="path195"
       style="stroke-width:0.1" />
    <path
       d="m 566.4,390.24 h 56.8801 v -1.55976 H 566.4 Z"
       fill="#ffffff"
       fill-rule="evenodd"
       id="path196"
       style="stroke-width:0.1" />
    <path
       d="M 623.28,410.4 H 566.4 v 1.08 l 56.88,-0.54 v -0.54"
       fill="#90caf9"
       fill-opacity="0.50196"
       fill-rule="evenodd"
       id="path197"
       style="stroke-width:0.1" />
    <path
       d="M 623.28,410.4 H 566.4 v 1.08 l 56.88,-0.54 v -0.54"
       fill="#90caf9"
       fill-opacity="0.50196"
       fill-rule="evenodd"
       id="path198"
       style="stroke-width:0.1" />
    <path
       d="m 566.4,410.4 h 56.8801 v -1.56016 H 566.4 Z"
       fill="#ffffff"
       fill-rule="evenodd"
       id="path199"
       style="stroke-width:0.1" />
    <path
       d="m 583.44,439.08 h 22.3203 V 417.9601 H 583.44 Z"
       fill="#ffffff"
       fill-rule="evenodd"
       id="path200"
       style="stroke-width:0.1" />
    <path
       d="m 583.44,439.08 h 10.5602 V 419.3999 H 583.44 Z"
       fill="#37474f"
       fill-rule="evenodd"
       id="path201"
       style="stroke-width:0.1" />
    <path
       d="m 595.2,439.08 h 10.5602 V 419.3999 H 595.2 Z"
       fill="#37474f"
       fill-rule="evenodd"
       id="path202"
       style="stroke-width:0.1" />
    <path
       d="m 579.96,439.08 h 3.4801 V 417.9601 H 579.96 Z"
       fill="#ffffff"
       fill-rule="evenodd"
       id="path203"
       style="stroke-width:0.1" />
    <path
       d="m 578.16,417.96 h 33.3598 v -3.36016 H 578.16 Z"
       fill="#ffffff"
       fill-rule="evenodd"
       id="path204"
       style="stroke-width:0.1" />
    <path
       d="m 605.76,439.08 h 3.4801 V 417.9601 H 605.76 Z"
       fill="#ffffff"
       fill-rule="evenodd"
       id="path205"
       style="stroke-width:0.1" />
    <path
       d="m 579.96,417.96 v 0.62 l 29.28,0.22 v -0.84 h -29.28"
       fill="#ebebeb"
       fill-rule="evenodd"
       id="path206"
       style="stroke-width:0.1" />
    <path
       d="m 590.04,419.4 -6.6,6.6 v -3.91 l 2.69,-2.69 h 3.91"
       fill="#5f6c72"
       fill-rule="evenodd"
       id="path207"
       style="stroke-width:0.1" />
    <path
       d="m 594,431.16 v 1.98 l -5.85,5.94 h -1.95 l 7.8,-7.92"
       fill="#5f6c72"
       fill-rule="evenodd"
       id="path208"
       style="stroke-width:0.1" />
    <path
       d="m 605.76,419.4 v 1.96 L 595.2,432 v -1.97 l 10.55,-10.63 h 0.01"
       fill="#5f6c72"
       fill-rule="evenodd"
       id="path209"
       style="stroke-width:0.1" />
    <path
       d="m 576.6,372.84 h 3.96 l -8.52,8.52 v -3.96 l 4.56,-4.56"
       fill="#5f6c72"
       fill-rule="evenodd"
       id="path210"
       style="stroke-width:0.1" />
    <path
       d="m 584.28,365.11 8.88,-8.83 v 3.92 l -5.48,5.44 h -3.4 v -0.53"
       fill="#5f6c72"
       fill-rule="evenodd"
       id="path211"
       style="stroke-width:0.1" />
    <path
       d="m 596.75,352.68 h 3.97 l -4.2,4.2 v -3.97 l 0.23,-0.23"
       fill="#5f6c72"
       fill-rule="evenodd"
       id="path212"
       style="stroke-width:0.1" />
    <path
       d="m 605.4,344.04 v 1.44 h -1.44 z"
       fill="#5f6c72"
       fill-rule="evenodd"
       id="path213"
       style="stroke-width:0.1" />
    <path
       d="m 599.52,406.08 5.88,-6 v 3.98 l -1.98,2.02 h -3.9"
       fill="#5f6c72"
       fill-rule="evenodd"
       id="path214"
       style="stroke-width:0.1" />
    <path
       d="m 616.44,393 -7.68,7.68 v -3.96 l 3.72,-3.72 h 3.96"
       fill="#5f6c72"
       fill-rule="evenodd"
       id="path215"
       style="stroke-width:0.1" />
    <path
       d="m 596.52,405.39 8.88,-8.91 v 0.45 l -8.88,8.91 v -0.45"
       fill="#5f6c72"
       fill-rule="evenodd"
       id="path216"
       style="stroke-width:0.1" />
    <path
       d="m 609.24,393 -0.48,0.48 v -0.42 l 0.06,-0.06 h 0.42"
       fill="#ffffff"
       fill-rule="evenodd"
       id="path217"
       style="stroke-width:0.1" />
    <path
       d="m 617.64,384.24 v 0.43 l -1.22,1.13 h -0.46 l 1.68,-1.56"
       fill="#5f6c72"
       fill-rule="evenodd"
       id="path218"
       style="stroke-width:0.1" />
    <path
       d="m 572.04,384.75 8.88,-8.91 v 0.45 l -8.88,8.91 v -0.45"
       fill="#5f6c72"
       fill-rule="evenodd"
       id="path219"
       style="stroke-width:0.1" />
    <path
       d="m 584.28,372.84 h 0.12 l -0.12,0.12 z"
       fill="#ffffff"
       fill-rule="evenodd"
       id="path220"
       style="stroke-width:0.1" />
    <path
       d="m 604.11,352.68 h 0.45 l -8.04,7.92 v -0.45 l 7.59,-7.47"
       fill="#5f6c72"
       fill-rule="evenodd"
       id="path221"
       style="stroke-width:0.1" />
    <path
       d="m 617.64,339.12 v 0.45 l -5.91,5.91 h -0.45 l 6.36,-6.36"
       fill="#5f6c72"
       fill-rule="evenodd"
       id="path222"
       style="stroke-width:0.1" />
    <path
       d="m 572.04,361.95 8.88,-8.91 v 0.45 l -8.88,8.91 v -0.45"
       fill="#5f6c72"
       fill-rule="evenodd"
       id="path223"
       style="stroke-width:0.1" />
    <path
       d="m 588.48,345.48 4.68,-4.68 v 0.45 l -4.23,4.23 h -0.45"
       fill="#5f6c72"
       fill-rule="evenodd"
       id="path224"
       style="stroke-width:0.1" />
    <path
       d="m 580.92,334.8 v 1.99 l -8.65,8.69 h -0.23 v -1.76 l 8.88,-8.92"
       fill="#5f6c72"
       fill-rule="evenodd"
       id="path225"
       style="stroke-width:0.1" />
    <path
       d="m 572.04,401.93 8.88,-8.93 v 1.99 l -8.88,8.93 v -1.99"
       fill="#5f6c72"
       fill-rule="evenodd"
       id="path226"
       style="stroke-width:0.1" />
    <path
       d="m 617.64,356.28 v 1.97 l -7.38,7.39 h -1.5 v -0.47 l 8.88,-8.89"
       fill="#5f6c72"
       fill-rule="evenodd"
       id="path227"
       style="stroke-width:0.1" />
    <path
       d="m 572.16,385.8 8.76,-8.76 v 1.97 l -6.79,6.79 h -1.97"
       fill="#5f6c72"
       fill-rule="evenodd"
       id="path228"
       style="stroke-width:0.1" />
    <path
       d="m 585.18,372.84 h 1.98 l -2.88,2.88 v -1.98 l 0.9,-0.9"
       fill="#5f6c72"
       fill-rule="evenodd"
       id="path229"
       style="stroke-width:0.1" />
    <path
       d="m 605.34,352.68 h 0.06 v 1.91 l -8.88,8.89 v -1.97 l 8.82,-8.83"
       fill="#5f6c72"
       fill-rule="evenodd"
       id="path230"
       style="stroke-width:0.1" />
    <path
       d="m 617.64,340.32 v 1.98 l -3.18,3.18 h -1.98 l 5.16,-5.16"
       fill="#5f6c72"
       fill-rule="evenodd"
       id="path231"
       style="stroke-width:0.1" />
    <path
       d="m 578.07,393 h 0.45 l -6.48,6.48 v -0.45 l 6.03,-6.03"
       fill="#5f6c72"
       fill-rule="evenodd"
       id="path232"
       style="stroke-width:0.1" />
    <path
       d="m 605.4,365.76 0.12,-0.12 v 0.12 z"
       fill="#ffffff"
       fill-rule="evenodd"
       id="path233"
       style="stroke-width:0.1" />
    <path
       d="m 617.64,353.4 v 0.45 l -8.88,8.91 v -0.45 l 8.88,-8.91"
       fill="#5f6c72"
       fill-rule="evenodd"
       id="path234"
       style="stroke-width:0.1" />
    <path
       d="m 621.17,429 h -2.39 c -2.25,0 -4.14,2.18 -4.14,4.86 0,2.68 1.86,4.86 4.14,4.86 h 2.39 c 2.29,0 4.15,-2.17 4.15,-4.86 0,-2.69 -1.83,-4.86 -4.15,-4.86"
       fill="#263238"
       fill-rule="evenodd"
       id="path235"
       style="stroke-width:0.1" />
    <path
       d="m 625.32,433.86 c 0,2.69 -1.85,4.86 -4.14,4.86 -2.29,0 -4.14,-2.17 -4.14,-4.86 0,-2.69 1.85,-4.86 4.14,-4.86 2.28,0 4.14,2.18 4.14,4.86"
       fill="#ffffff"
       fill-opacity="0.2"
       fill-rule="evenodd"
       id="path236"
       style="stroke-width:0.1" />
    <path
       d="m 621.18,436.92 c -1.27,0 -2.34,-1.41 -2.34,-3.06 0,-1.66 1.07,-3.06 2.34,-3.06 1.26,0 2.34,1.4 2.34,3.06 0,1.65 -1.05,3.06 -2.34,3.06"
       fill-opacity="0.2"
       fill-rule="evenodd"
       id="path237"
       style="stroke-width:0.1" />
    <path
       d="m 655.73,429 h -2.38 c -2.29,0 -4.15,2.18 -4.15,4.86 0,2.68 1.86,4.86 4.15,4.86 h 2.38 c 2.29,0 4.15,-2.17 4.15,-4.86 0,-2.69 -1.86,-4.86 -4.15,-4.86"
       fill="#263238"
       fill-rule="evenodd"
       id="path238"
       style="stroke-width:0.1" />
    <path
       d="m 659.88,433.86 c 0,2.69 -1.85,4.86 -4.14,4.86 -2.29,0 -4.14,-2.17 -4.14,-4.86 0,-2.69 1.85,-4.86 4.14,-4.86 2.28,0 4.14,2.18 4.14,4.86"
       fill="#ffffff"
       fill-opacity="0.2"
       fill-rule="evenodd"
       id="path239"
       style="stroke-width:0.1" />
    <path
       d="m 655.74,436.92 c -1.27,0 -2.34,-1.41 -2.34,-3.06 0,-1.66 1.07,-3.06 2.34,-3.06 1.26,0 2.34,1.4 2.34,3.06 0,1.65 -1.07,3.06 -2.34,3.06"
       fill-opacity="0.2"
       fill-rule="evenodd"
       id="path240"
       style="stroke-width:0.1" />
    <path
       d="m 619.32,419.52 v 13.38 c 0,1.16 0.94,2.1 2.1,2.1 h 57.59 c 1.16,0 2.11,-0.94 2.11,-2.1 v -13.38"
       fill="#263238"
       fill-rule="evenodd"
       id="path241"
       style="stroke-width:0.1" />
    <path
       d="m 640.73,429 h -2.39 c -2.25,0 -4.14,2.18 -4.14,4.86 0,2.68 1.86,4.86 4.14,4.86 h 2.39 c 2.26,0 4.15,-2.17 4.15,-4.86 0,-2.69 -1.83,-4.86 -4.15,-4.86"
       fill="#263238"
       fill-rule="evenodd"
       id="path242"
       style="stroke-width:0.1" />
    <path
       d="m 644.88,433.86 c 0,2.69 -1.85,4.86 -4.14,4.86 -2.29,0 -4.14,-2.17 -4.14,-4.86 0,-2.69 1.85,-4.86 4.14,-4.86 2.29,0 4.14,2.18 4.14,4.86"
       fill="#ffffff"
       fill-opacity="0.2"
       fill-rule="evenodd"
       id="path243"
       style="stroke-width:0.1" />
    <path
       d="m 640.74,436.92 c -1.27,0 -2.34,-1.41 -2.34,-3.06 0,-1.66 1.07,-3.06 2.34,-3.06 1.26,0 2.34,1.4 2.34,3.06 0,1.65 -1.04,3.06 -2.34,3.06"
       fill="#ffffff"
       fill-opacity="0.2"
       fill-rule="evenodd"
       id="path244"
       style="stroke-width:0.1" />
    <path
       d="m 675.29,429 h -2.39 c -2.25,0 -4.14,2.18 -4.14,4.86 0,2.68 1.86,4.86 4.14,4.86 h 2.39 c 2.29,0 4.15,-2.17 4.15,-4.86 0,-2.69 -1.86,-4.86 -4.15,-4.86"
       fill="#263238"
       fill-rule="evenodd"
       id="path245"
       style="stroke-width:0.1" />
    <path
       d="m 679.44,433.86 c 0,2.69 -1.85,4.86 -4.14,4.86 -2.29,0 -4.14,-2.17 -4.14,-4.86 0,-2.69 1.85,-4.86 4.14,-4.86 2.28,0 4.14,2.18 4.14,4.86"
       fill="#ffffff"
       fill-opacity="0.2"
       fill-rule="evenodd"
       id="path246"
       style="stroke-width:0.1" />
    <path
       d="m 675.3,436.92 c -1.27,0 -2.34,-1.41 -2.34,-3.06 0,-1.66 1.07,-3.06 2.34,-3.06 1.26,0 2.34,1.4 2.34,3.06 0,1.65 -1.07,3.06 -2.34,3.06"
       fill="#ffffff"
       fill-opacity="0.2"
       fill-rule="evenodd"
       id="path247"
       style="stroke-width:0.1" />
    <path
       d="m 650.76,401.93 c 0,0.76 -0.62,1.38 -1.39,1.39 h -14.63 c -0.77,0.05 -1.44,-0.52 -1.5,-1.28 -0.05,-0.76 0.52,-1.42 1.29,-1.48 0.07,0 0.14,0 0.21,0 h 14.63 c 0.77,0 1.39,0.61 1.39,1.37"
       fill="#407bff"
       fill-rule="evenodd"
       id="path248"
       style="stroke-width:0.1" />
    <path
       d="m 650.76,401.93 c 0,0.76 -0.62,1.38 -1.39,1.39 h -8.63 c -0.77,0.05 -1.44,-0.52 -1.5,-1.28 -0.05,-0.76 0.52,-1.42 1.29,-1.48 0.07,0 0.14,0 0.21,0 h 8.63 c 0.77,0 1.39,0.61 1.39,1.37"
       fill="#263238"
       fill-rule="evenodd"
       id="path249"
       style="stroke-width:0.1" />
    <path
       d="m 650.76,401.93 c 0,0.76 -0.61,1.38 -1.38,1.39 h -6.37 c -0.76,0.05 -1.43,-0.52 -1.49,-1.28 -0.05,-0.76 0.52,-1.42 1.29,-1.48 0.06,0 0.13,0 0.2,0 h 6.37 c 0.76,0 1.38,0.61 1.38,1.37"
       fill="#407bff"
       fill-rule="evenodd"
       id="path250"
       style="stroke-width:0.1" />
    <path
       d="m 683.88,420.48 v 11.82 c 0,0.83 -0.67,1.5 -1.5,1.5 h -2.3 c -0.04,-3.07 -2.25,-5.56 -4.88,-5.56 -2.63,0 -4.85,2.5 -4.89,5.57 l -24.73,0.05 c 0,-3.1 -2.2,-5.62 -4.88,-5.62 -2.69,0 -4.88,2.53 -4.89,5.64 h -4.64 -0.17 -0.05 l -18.33,0.04 c -1.06,0.01 -1.93,-0.85 -1.94,-1.91 0,-0.07 0,-0.13 0.01,-0.19 0.13,-1.46 0.32,-3.44 0.48,-5.26 0.06,-0.58 0.12,-1.13 0.16,-1.63 0.13,-1.34 0.67,-2.6 1.54,-3.61 0.23,-0.27 0.48,-0.52 0.75,-0.76 l 4.83,-4.08 7.44,-11.34 c 1.19,-1.81 3.21,-2.9 5.37,-2.9 h 46.82 c 0.47,0 0.94,0.09 1.39,0.26 0.31,0.12 0.62,0.29 0.89,0.49 0.19,0.14 0.36,0.29 0.51,0.45 0.32,0.33 0.58,0.72 0.75,1.15 0.05,0.1 0.09,0.2 0.12,0.31 0.08,0.23 0.13,0.47 0.16,0.71"
       fill="#407bff"
       fill-rule="evenodd"
       id="path251"
       style="stroke-width:0.1" />
    <path
       d="m 683.88,420.48 v 11.82 c 0,0.83 -0.67,1.5 -1.5,1.5 h -2.3 c -0.04,-3.07 -2.25,-5.56 -4.88,-5.56 -2.63,0 -4.85,2.5 -4.89,5.57 l -24.73,0.05 c 0,-3.1 -2.2,-5.62 -4.88,-5.62 -2.69,0 -4.88,2.53 -4.89,5.64 h -4.64 -0.17 -0.05 l -18.33,0.04 c -1.06,0.01 -1.93,-0.85 -1.94,-1.91 0,-0.07 0,-0.13 0.01,-0.19 0.13,-1.46 0.32,-3.44 0.48,-5.26 0.06,-0.58 0.12,-1.13 0.16,-1.63 0.13,-1.34 0.67,-2.6 1.54,-3.61 0.23,-0.27 0.48,-0.52 0.75,-0.76 l 4.83,-4.08 7.44,-11.34 c 1.19,-1.81 3.21,-2.9 5.37,-2.9 h 46.82 c 0.47,0 0.94,0.09 1.39,0.26 0.31,0.12 0.62,0.29 0.89,0.49 0.19,0.14 0.36,0.29 0.51,0.45 0.32,0.33 0.58,0.72 0.75,1.15 0.05,0.1 0.09,0.2 0.12,0.31 0.08,0.23 0.13,0.47 0.16,0.71"
       fill="#ffffff"
       fill-opacity="0.70196"
       fill-rule="evenodd"
       id="path252"
       style="stroke-width:0.1" />
    <path
       d="m 683.88,420.52 v 11.8 c 0,0.83 -0.67,1.5 -1.5,1.5 h -2.3 c 0,-3.06 -2.25,-5.55 -4.88,-5.55 -2.63,0 -4.85,2.49 -4.89,5.57 l -24.74,0.05 c 0,-3.1 -2.21,-5.61 -4.89,-5.61 -2.69,0 -4.88,2.53 -4.89,5.63 h -4.46 c -0.06,0.01 -0.12,0.01 -0.18,0 -0.08,0.01 -0.16,0.01 -0.24,0 -0.95,-0.21 -1.59,-1.09 -1.5,-2.06 0.12,-1.37 0.3,-3.22 0.46,-4.93 0.06,-0.67 0.13,-1.33 0.18,-1.93 0.17,-1.69 0.99,-3.26 2.29,-4.35 l 1.23,-1.05 3.6,-3 6,-11.48 c 0.88,-1.69 2.63,-2.75 4.53,-2.75 h 30.38 c 0.47,0 0.94,0.09 1.38,0.26 0.32,0.12 0.63,0.29 0.9,0.49 0.18,0.14 0.35,0.29 0.51,0.45 0.32,0.33 0.58,0.72 0.75,1.15 0.05,0.1 0.09,0.2 0.12,0.31 0.08,0.23 0.14,0.47 0.17,0.71 l 1.78,13.5 0.1,0.75"
       fill="#ffffff"
       fill-opacity="0.30196"
       fill-rule="evenodd"
       id="path253"
       style="stroke-width:0.1" />
    <path
       d="m 619.32,416.04 h 17.02 l 5.06,-9.36 h -15.9 l -6.18,9.36"
       fill="#263238"
       fill-rule="evenodd"
       id="path254"
       style="stroke-width:0.1" />
    <path
       d="m 612.76,426.58 c -0.52,0.2 -1.1,0.18 -1.6,-0.05 0.06,-0.57 0.12,-1.12 0.17,-1.62 0.11,-1.33 0.65,-2.58 1.54,-3.59 0.21,0.35 0.35,0.74 0.42,1.14 0.17,0.78 -0.53,4.12 -0.53,4.12"
       fill="#ffffff"
       fill-opacity="0.6"
       fill-rule="evenodd"
       id="path255"
       style="stroke-width:0.1" />
    <path
       d="m 613.74,422.64 h 13.38 c 0,0 -1.67,3.39 -1.42,4.38 -2.2,0.96 -4.57,1.47 -6.97,1.5 -3.88,0 -5.41,-1.82 -5.41,-1.82 0.23,-1.34 0.37,-2.7 0.42,-4.06"
       fill-opacity="0.2"
       fill-rule="evenodd"
       id="path256"
       style="stroke-width:0.1" />
    <path
       d="m 628.43,430.8 c 0.07,0.58 -0.33,1.11 -0.9,1.2 -0.49,0 -0.89,-0.54 -0.89,-1.2 0,-0.66 0.4,-1.2 0.89,-1.2 0.57,0.09 0.97,0.62 0.9,1.2"
       fill="#ffffff"
       fill-rule="evenodd"
       id="path257"
       style="stroke-width:0.1" />
    <path
       d="m 613.08,430.8 c 0,0.66 -0.38,1.2 -0.84,1.2 -0.46,0 -0.84,-0.54 -0.84,-1.2 0,-0.66 0.38,-1.2 0.84,-1.2 0.46,0 0.84,0.54 0.84,1.2"
       fill="#ffffff"
       fill-rule="evenodd"
       id="path258"
       style="stroke-width:0.1" />
    <path
       d="m 625.2,431.4 c 0,0.33 -0.21,0.6 -0.48,0.6 -0.27,0 -0.48,-0.27 -0.48,-0.6 0,-0.33 0.21,-0.6 0.48,-0.6 0.27,0 0.48,0.27 0.48,0.6"
       fill="#ffffff"
       fill-rule="evenodd"
       id="path259"
       style="stroke-width:0.1" />
    <path
       d="m 614.64,431.4 c 0,0.33 -0.21,0.6 -0.48,0.6 -0.27,0 -0.48,-0.27 -0.48,-0.6 0,-0.33 0.21,-0.6 0.48,-0.6 0.27,0 0.48,0.27 0.48,0.6"
       fill="#ffffff"
       fill-rule="evenodd"
       id="path260"
       style="stroke-width:0.1" />
    <path
       d="m 638.4,416.47 5.34,-9.79 h 7.02 v 9.34 c 0,0 -5.72,-0.07 -7.02,2.54 h -5.34"
       fill="#263238"
       fill-rule="evenodd"
       id="path261"
       style="stroke-width:0.1" />
    <path
       d="m 651.72,416.04 h 8.4 v -9.35976 h -8.4 z"
       fill="#263238"
       fill-rule="evenodd"
       id="path262"
       style="stroke-width:0.1" />
    <path
       d="m 630.68,419.16 h -0.32 l 2.46,-1.92 h 0.3 l -0.99,1.92 h -0.31 l 0.24,-0.44 h -0.82 z m 1.52,-0.74 0.45,-0.84 -1.06,0.84"
       fill="#407bff"
       fill-rule="evenodd"
       id="path263"
       style="stroke-width:0.1" />
    <path
       d="m 628.44,419.16 1.65,-1.92 h 0.24 l -0.49,1.27 1.72,-1.27 h 0.24 l -1.65,1.92 h -0.28 l 1.08,-1.26 -1.41,1.05 h -0.12 l 0.39,-1.06 -1.1,1.27"
       fill="#407bff"
       fill-rule="evenodd"
       id="path264"
       style="stroke-width:0.1" />
    <path
       d="m 627.67,418.16 c -0.05,-0.08 0,-0.23 0.17,-0.42 0.26,-0.31 0.64,-0.49 1.04,-0.5 h 0.76 l -1.72,1.92 h -0.8 c -0.42,0 -0.47,-0.19 -0.17,-0.52 0.19,-0.22 0.44,-0.39 0.72,-0.48 z m -0.28,0.74 h 0.49 l 0.49,-0.55 h -0.48 c -0.23,0 -0.45,0.1 -0.6,0.28 -0.17,0.17 -0.11,0.25 0.1,0.25 z m 1.28,-1.36 c -0.22,0.01 -0.43,0.1 -0.57,0.27 -0.16,0.18 -0.11,0.26 0.09,0.26 h 0.43 l 0.47,-0.53"
       fill="#407bff"
       fill-rule="evenodd"
       id="path265"
       style="stroke-width:0.1" />
    <path
       d="m 625.52,419.16 c -0.44,0 -0.43,-0.3 0.06,-0.85 l 0.97,-1.07 h 0.29 l -0.95,1.05 c -0.35,0.4 -0.35,0.56 -0.09,0.56 0.37,-0.05 0.71,-0.25 0.92,-0.56 l 0.95,-1.05 h 0.29 l -0.96,1.07 c -0.35,0.47 -0.88,0.78 -1.48,0.85"
       fill="#407bff"
       fill-rule="evenodd"
       id="path266"
       style="stroke-width:0.1" />
    <path
       d="m 624.39,419.16 h -1.11 l 0.26,-0.3 h 0.81 l 1.4,-1.62 h 0.29"
       fill="#407bff"
       fill-rule="evenodd"
       id="path267"
       style="stroke-width:0.1" />
    <path
       d="m 621.79,419.16 h -0.31 l 2.46,-1.92 h 0.3 l -0.99,1.92 h -0.31 l 0.24,-0.44 h -0.82 z m 1.52,-0.74 0.45,-0.84 -1.06,0.84"
       fill="#407bff"
       fill-rule="evenodd"
       id="path268"
       style="stroke-width:0.1" />
    <path
       d="m 621.79,417.24 -1.15,1.3 2.04,-1.3 h 0.24 l -1.7,1.92 h -0.29 l 1.15,-1.3 -2.03,1.3 h -0.25 l 1.7,-1.92"
       fill="#407bff"
       fill-rule="evenodd"
       id="path269"
       style="stroke-width:0.1" />
    <path
       d="m 618.61,419.16 c -0.27,0 -0.4,-0.11 -0.37,-0.33 l 0.41,-0.23 c 0,0.16 0.06,0.24 0.23,0.24 0.47,-0.07 0.9,-0.32 1.2,-0.7 0.36,-0.41 0.37,-0.7 0,-0.7 -0.23,0.02 -0.45,0.1 -0.64,0.24 v -0.23 c 0.27,-0.19 0.6,-0.31 0.94,-0.33 0.51,0 0.51,0.43 0,1.02 -0.44,0.55 -1.07,0.91 -1.77,1.02"
       fill="#407bff"
       fill-rule="evenodd"
       id="path270"
       style="stroke-width:0.1" />
    <path
       d="m 617.73,418.86 0.46,-0.53 h -0.74 l 0.25,-0.29 h 0.74 l 0.44,-0.5 h -0.87 l 0.26,-0.3 h 1.17 l -1.69,1.92 h -1.19 l 0.26,-0.3"
       fill="#407bff"
       fill-rule="evenodd"
       id="path271"
       style="stroke-width:0.1" />
    <path
       d="m 670.92,416.04 h 2.04027 v -8.51992 H 670.92 Z"
       fill="#407bff"
       fill-rule="evenodd"
       id="path272"
       style="stroke-width:0.1" />
    <path
       d="m 667.68,412.8 h 8.5199 v -2.03984 H 667.68 Z"
       fill="#407bff"
       fill-rule="evenodd"
       id="path273"
       style="stroke-width:0.1" />
    <path
       d="m 683.88,419.82 h -26.62 c -3.43,-0.01 -6.8,1 -9.67,2.91 l -1.67,1.11 H 632.4 v -0.76 h 13.24 l 1.51,-1 c 3,-1.98 6.5,-3.04 10.08,-3.04 h 26.52"
       fill="#407bff"
       fill-rule="evenodd"
       id="path274"
       style="stroke-width:0.1" />
    <path
       d="m 626.16,426.84 c 0.21,-1.39 1.32,-4.13 2.36,-5.05 1.04,-0.93 4.78,-2.5 5.07,-2.24 1.6,1.29 -2.47,6.55 -3.71,7.29 -1.23,0.74 -3.84,0.86 -3.72,0"
       fill="#ffffff"
       fill-rule="evenodd"
       id="path275"
       style="stroke-width:0.1" />
    <path
       d="m 720.12,438.24 h 22.31996 V 386.8802 H 720.12 Z"
       fill="#ffc100"
       fill-rule="evenodd"
       id="path276"
       style="stroke-width:0.1" />
    <path
       d="m 720.12,438.24 h 22.31996 V 386.8802 H 720.12 Z"
       fill-opacity="0.2"
       fill-rule="evenodd"
       id="path277"
       style="stroke-width:0.1" />
    <path
       d="m 714.84,386.58 h 55.28 l 10.33,-14.6 10.82,15.02 12.73,-0.2 -13.72,-18.4 -61.63,0.26 -13.81,17.92"
       fill="#ffc100"
       fill-rule="evenodd"
       id="path278"
       style="stroke-width:0.1" />
    <path
       d="m 714.84,386.58 h 55.28 l 10.33,-14.6 10.82,15.02 12.73,-0.2 -13.72,-18.4 -61.63,0.26 -13.81,17.92"
       fill="#ffffff"
       fill-opacity="0.2"
       fill-rule="evenodd"
       id="path279"
       style="stroke-width:0.1" />
    <path
       d="m 742.44,386.87 v 51.37 h 55.32 v -51.37 h -6.35 L 780.48,372 l -10.38,14.64 -27.66,0.23"
       fill="#ffc100"
       fill-rule="evenodd"
       id="path280"
       style="stroke-width:0.1" />
    <path
       d="m 750.24,438.24 h 12.9602 v -22.2 H 750.24 Z"
       fill="#cc9a00"
       fill-rule="evenodd"
       id="path281"
       style="stroke-width:0.1" />
    <path
       d="m 771,427.92 h 20.2801 v -12.6 H 771 Z"
       fill="#ffffff"
       fill-opacity="0.70196"
       fill-rule="evenodd"
       id="path282"
       style="stroke-width:0.1" />
    <path
       d="m 771,402.72 h 20.2801 v -12.6 H 771 Z"
       fill="#ffffff"
       fill-opacity="0.70196"
       fill-rule="evenodd"
       id="path283"
       style="stroke-width:0.1" />
    <path
       d="m 749.04,402.36 h 12.8402 V 390.2397 H 749.04 Z"
       fill="#ffffff"
       fill-opacity="0.70196"
       fill-rule="evenodd"
       id="path284"
       style="stroke-width:0.1" />
    <path
       d="m 776.76,428.04 h 0.11995 V 415.3201 H 776.76 Z"
       fill="#ffc100"
       fill-rule="evenodd"
       id="path285"
       style="stroke-width:0.1" />
    <path
       d="m 785.16,428.04 h 0.23987 V 415.3201 H 785.16 Z"
       fill="#ffc100"
       fill-rule="evenodd"
       id="path286"
       style="stroke-width:0.1" />
    <path
       d="m 776.88,422.16 h 8.4 v -0.12032 h -8.4 z"
       fill="#ffc100"
       fill-rule="evenodd"
       id="path287"
       style="stroke-width:0.1" />
    <path
       d="m 776.76,402.84 h 0.11995 V 390.1201 H 776.76 Z"
       fill="#ffc100"
       fill-rule="evenodd"
       id="path288"
       style="stroke-width:0.1" />
    <path
       d="m 785.16,402.84 h 0.23987 V 390.1201 H 785.16 Z"
       fill="#ffc100"
       fill-rule="evenodd"
       id="path289"
       style="stroke-width:0.1" />
    <path
       d="m 776.88,396.96 h 8.4 v -0.24024 h -8.4 z"
       fill="#ffc100"
       fill-rule="evenodd"
       id="path290"
       style="stroke-width:0.1" />
    <path
       d="m 755.4,402.36 h 0.1199 V 390.2397 H 755.4 Z"
       fill="#ffc100"
       fill-rule="evenodd"
       id="path291"
       style="stroke-width:0.1" />
    <path
       d="m 749.04,396.72 h 12.8402 v -0.23985 H 749.04 Z"
       fill="#ffc100"
       fill-rule="evenodd"
       id="path292"
       style="stroke-width:0.1" />
    <path
       d="m 783.12,381.78 c 0,1.49 -1.21,2.7 -2.7,2.7 -1.49,0 -2.7,-1.21 -2.7,-2.7 0,-1.49 1.21,-2.7 2.7,-2.7 1.49,0 2.7,1.21 2.7,2.7"
       fill="#ffffff"
       fill-opacity="0.70196"
       fill-rule="evenodd"
       id="path293"
       style="stroke-width:0.1" />
    <path
       d="m 761.02,378.4 3.38,-4.24 v -10.2 h -7.08 v 14.52 l 3.7,-0.08"
       fill="#ffc100"
       fill-rule="evenodd"
       id="path294"
       style="stroke-width:0.1" />
    <path
       d="m 761.04,378.48 v -14.52 h 3.36 v 10.26 l -3.36,4.26"
       fill-opacity="0.2"
       fill-rule="evenodd"
       id="path295"
       style="stroke-width:0.1" />
    <path
       d="m 756.48,363.96 h 8.5199 v -1.44024 H 756.48 Z"
       fill="#ffc100"
       fill-rule="evenodd"
       id="path296"
       style="stroke-width:0.1" />
    <path
       d="m 700.8,438.24 h 42.3602 V 409.3201 H 700.8 Z"
       fill="#ffc100"
       fill-rule="evenodd"
       id="path297"
       style="stroke-width:0.1" />
    <path
       d="m 700.8,438.24 h 26.0398 V 409.3201 H 700.8 Z"
       fill-opacity="0.2"
       fill-rule="evenodd"
       id="path298"
       style="stroke-width:0.1" />
    <path
       d="m 721.4,438.24 c -0.03,-0.12 -0.04,-0.25 -0.04,-0.38 0,-0.29 0,-0.65 0,-1.08 0,-1.01 0,-2.38 -0.06,-4.08 0,-3.53 -0.04,-8.41 -0.07,-14.05 l 0.21,0.21 h -15.58 l 0.21,-0.21 c 0,5.64 -0.06,10.52 -0.08,14.05 0,1.7 -0.04,3.07 -0.06,4.08 0,0.43 0,0.79 -0.04,1.08 0.02,0.13 0.02,0.26 0,0.38 -0.03,-0.12 -0.04,-0.25 -0.03,-0.38 0,-0.29 0,-0.65 0,-1.08 0,-1.01 0,-2.38 -0.06,-4.08 0,-3.53 -0.05,-8.41 -0.08,-14.05 v -0.21 h 15.96 v 0.21 c -0.04,5.64 -0.06,10.52 -0.08,14.05 0,1.7 -0.05,3.07 -0.06,4.08 0,0.43 0,0.79 0,1.08 -0.04,0.13 -0.08,0.26 -0.14,0.38"
       fill="#263238"
       fill-rule="evenodd"
       id="path299"
       style="stroke-width:0.1" />
    <path
       d="m 730.2,420.72 h 10.9199 v -2.75977 H 730.2 Z"
       fill-opacity="0.2"
       fill-rule="evenodd"
       id="path300"
       style="stroke-width:0.1" />
    <path
       d="m 714.84,386.65 v 1.43 h 55.2 v -1.44 l -55.2,0.01"
       fill="#ffc100"
       fill-rule="evenodd"
       id="path301"
       style="stroke-width:0.1" />
    <path
       d="m 770.04,388.08 10.41,-14.44 0.03,-1.64 -10.4,14.6 -0.04,1.48"
       fill="#ffc100"
       fill-rule="evenodd"
       id="path302"
       style="stroke-width:0.1" />
    <path
       d="m 791.4,387.84 h 12.3602 v -0.95976 H 791.4 Z"
       fill="#ffc100"
       fill-rule="evenodd"
       id="path303"
       style="stroke-width:0.1" />
    <path
       d="m 754.2,414.36 h 4.56018 v -1.80039 H 754.2 Z"
       fill="#cc9a00"
       fill-rule="evenodd"
       id="path304"
       style="stroke-width:0.1" />
    <path
       d="m 714.84,386.65 v 1.43 h 55.2 v -1.44 l -55.2,0.01"
       fill-opacity="0.30196"
       fill-rule="evenodd"
       id="path305"
       style="stroke-width:0.1" />
    <path
       d="m 770.04,388.08 10.41,-14.44 0.03,-1.64 -10.4,14.6 -0.04,1.48"
       fill-opacity="0.30196"
       fill-rule="evenodd"
       id="path306"
       style="stroke-width:0.1" />
    <path
       d="m 791.4,387.84 h 12.3602 v -0.95976 H 791.4 Z"
       fill-opacity="0.30196"
       fill-rule="evenodd"
       id="path307"
       style="stroke-width:0.1" />
    <path
       d="m 762.2,427.2 c -0.04,0 0,-0.29 -0.35,-0.5 -0.18,-0.12 -0.41,-0.15 -0.61,-0.07 -0.33,0.13 -0.49,0.49 -0.36,0.8 0.07,0.16 0.2,0.28 0.36,0.34 0.2,0.08 0.43,0.05 0.61,-0.07 0.32,-0.21 0.31,-0.51 0.35,-0.5 0.04,0.01 0.13,0.32 -0.23,0.65 -0.23,0.18 -0.54,0.24 -0.82,0.15 -0.46,-0.15 -0.7,-0.63 -0.54,-1.07 0.08,-0.25 0.28,-0.44 0.54,-0.53 0.28,-0.09 0.59,-0.03 0.82,0.15 0.36,0.33 0.25,0.67 0.23,0.65"
       fill="#263238"
       fill-rule="evenodd"
       id="path308"
       style="stroke-width:0.1" />
    <path
       d="m 836.1,438.6 c 0,0.1 -78.85,0.18 -176.09,0.18 -97.24,0 -176.11,-0.08 -176.11,-0.18 0,-0.1 78.83,-0.18 176.11,-0.18 97.28,0 176.09,0.08 176.09,0.18"
       fill="#263238"
       fill-rule="evenodd"
       id="path309"
       style="stroke-width:0.1" />
    <path
       stroke-width="2.25"
       stroke-linecap="butt"
       stroke-miterlimit="10"
       stroke-linejoin="miter"
       fill="none"
       stroke="#000000"
       d="m 836.1,438.6 c 0,0.1 -78.85,0.18 -176.09,0.18 -97.24,0 -176.11,-0.08 -176.11,-0.18 0,-0.1 78.83,-0.18 176.11,-0.18 97.28,0 176.09,0.08 176.09,0.18 z"
       id="path310" />
  </g>
</svg>
