<?xml version="1.0" encoding="UTF-8" standalone="no"?>
<svg
   version="1.1"
   width="385.457"
   height="378.3869"
   viewBox="0 0 385.45699 378.3869"
   id="svg167"
   sodipodi:docname="PDF1_SVG2.svg"
   inkscape:version="1.3.2 (091e20e, 2023-11-25, custom)"
   xmlns:inkscape="http://www.inkscape.org/namespaces/inkscape"
   xmlns:sodipodi="http://sodipodi.sourceforge.net/DTD/sodipodi-0.dtd"
   xmlns="http://www.w3.org/2000/svg"
   xmlns:svg="http://www.w3.org/2000/svg">
  <sodipodi:namedview
     id="namedview167"
     pagecolor="#ffffff"
     bordercolor="#000000"
     borderopacity="0.25"
     inkscape:showpageshadow="2"
     inkscape:pageopacity="0.0"
     inkscape:pagecheckerboard="0"
     inkscape:deskcolor="#d1d1d1"
     inkscape:zoom="1.45625"
     inkscape:cx="116.0515"
     inkscape:cy="211.1588"
     inkscape:window-width="1920"
     inkscape:window-height="1111"
     inkscape:window-x="-9"
     inkscape:window-y="-9"
     inkscape:window-maximized="1"
     inkscape:current-layer="svg167" />
  <defs
     id="defs14">
    <clipPath
       id="clip_0">
      <path
         transform="matrix(0.1,0,0,-0.1,0,540)"
         d="M 5227.2,223.199 H 9600 V 4658.3996 H 5227.2 Z"
         clip-rule="evenodd"
         id="path1" />
    </clipPath>
    <clipPath
       id="clip_1">
      <path
         transform="matrix(0.1,0,0,-0.1,0,540)"
         d="m 5227.2,223.199 h 4435.33 l -0.01,4435.031 H 5227.2 Z"
         id="path2" />
    </clipPath>
    <clipPath
       id="clip_2">
      <path
         transform="matrix(0.1,0,0,-0.1,0,540)"
         d="M 5233,226 V 4652 H 9600 V 226 Z"
         clip-rule="evenodd"
         id="path3" />
    </clipPath>
    <clipPath
       id="clip_3">
      <path
         transform="matrix(0.1,0,0,-0.1,0,540)"
         d="M 5227,223 H 9600 V 4659 H 5227 Z"
         id="path4" />
    </clipPath>
    <clipPath
       id="clip_4">
      <path
         transform="matrix(0.1,0,0,-0.1,0,540)"
         d="M 5233,226 V 4652 H 9600 V 226 Z"
         clip-rule="evenodd"
         id="path5" />
    </clipPath>
    <clipPath
       id="clip_5">
      <path
         transform="matrix(0.1,0,0,-0.1,0,540)"
         d="M 5227,223 H 9600 V 4659 H 5227 Z"
         id="path6" />
    </clipPath>
    <clipPath
       id="clip_6">
      <path
         transform="matrix(0.1,0,0,-0.1,0,540)"
         d="M 5233,226 V 4652 H 9600 V 226 Z"
         clip-rule="evenodd"
         id="path7" />
    </clipPath>
    <clipPath
       id="clip_7">
      <path
         transform="matrix(0.1,0,0,-0.1,0,540)"
         d="M 5227,223 H 9600 V 4659 H 5227 Z"
         id="path8" />
    </clipPath>
    <clipPath
       id="clip_8">
      <path
         transform="matrix(0.1,0,0,-0.1,0,540)"
         d="M 5233,226 V 4652 H 9600 V 226 Z"
         clip-rule="evenodd"
         id="path9" />
    </clipPath>
    <clipPath
       id="clip_9">
      <path
         transform="matrix(0.1,0,0,-0.1,0,540)"
         d="M 5227,223 H 9600 V 4659 H 5227 Z"
         id="path10" />
    </clipPath>
    <clipPath
       id="clip_10">
      <path
         transform="matrix(0.1,0,0,-0.1,0,540)"
         d="M 5233,226 V 4652 H 9600 V 226 Z"
         clip-rule="evenodd"
         id="path11" />
    </clipPath>
    <clipPath
       id="clip_11">
      <path
         transform="matrix(0.1,0,0,-0.1,0,540)"
         d="M 5227,223 H 9600 V 4659 H 5227 Z"
         id="path12" />
    </clipPath>
    <clipPath
       id="clip_12">
      <path
         transform="matrix(0.1,0,0,-0.1,0,540)"
         d="M 5233,226 V 4652 H 9600 V 226 Z"
         clip-rule="evenodd"
         id="path13" />
    </clipPath>
    <clipPath
       id="clip_13">
      <path
         transform="matrix(0.1,0,0,-0.1,0,540)"
         d="M 5227,223 H 9600 V 4659 H 5227 Z"
         id="path14" />
    </clipPath>
  </defs>
  <path
     d="m 184.241,340.8272 -17.59,0.1679 -17.05,0.3391 -16.51,0.3348 -15.78,0.6742 -15.06,0.8418 -14.16,0.8422 -13.26,1.1808 -12.27,1.177 -11.09,1.348 -9.93,1.3488 -8.56,1.684 -3.88,0.6742 -3.43,0.8418 -3.07,0.8422 -2.7,1.009 -2.35,0.8418 -1.89,0.8422 -1.54,1.0129 -1.08,0.8422 -0.36,0.5027 -0.27,0.5063 -0.18,0.507 -0.09,0.5027 0.09,0.5063 0.18,0.507 0.27,0.3348 0.36,0.507 1.08,1.009 1.54,0.8422 1.89,1.0097 2.35,0.8422 2.7,0.841 3.07,0.8418 3.43,0.8461 3.88,0.8422 8.56,1.516 9.93,1.5118 11.09,1.3492 12.27,1.1808 13.26,1.009 14.16,1.0102 15.06,0.6738 15.78,0.6742 16.51,0.5071 17.05,0.3347 h 35.26 l 17.05,-0.3347 16.51,-0.5071 15.78,-0.6742 15.06,-0.6738 14.16,-1.0102 13.26,-1.009 12.27,-1.1808 11.09,-1.3492 9.93,-1.5118 8.56,-1.516 3.79,-0.8422 3.52,-0.8461 3.07,-0.8418 2.7,-0.841 2.35,-0.8422 1.89,-1.0097 1.54,-0.8422 1.08,-1.009 0.36,-0.507 0.27,-0.3348 0.18,-0.507 0.09,-0.5063 -0.09,-0.5027 -0.18,-0.507 -0.27,-0.5063 -0.36,-0.5027 -1.08,-0.8422 -1.54,-1.0129 -1.89,-0.8422 -2.35,-0.8418 -2.7,-1.009 -3.07,-0.8422 -3.52,-0.8418 -3.79,-0.6742 -8.56,-1.684 -9.93,-1.3488 -11.09,-1.348 -12.27,-1.177 -13.26,-1.1808 -14.16,-0.8422 -15.06,-0.8418 -15.78,-0.6742 -16.51,-0.3348 -17.05,-0.3391 -17.67,-0.1679"
     fill="#283737"
     fill-opacity="0.51373"
     fill-rule="evenodd"
     id="path27"
     style="stroke-width:0.1" />
  <g
     clip-path="url(#clip_0)"
     id="g66"
     transform="translate(-551.139,-113.333)">
    <g
       clip-path="url(#clip_1)"
       id="g65">
      <path
         transform="matrix(0.1,0,0,-0.1,0,540)"
         d="M 5546.27,900.242 V 678.098 h 51.24 c -2.69,23.371 -2.69,46.988 0,70.359 4.87,26.109 60.54,93.551 58.85,151.434"
         fill="#ebebeb"
         id="path28" />
      <path
         transform="matrix(0.1,0,0,-0.1,0,540)"
         d="M 5956.22,900.242 V 678.098 h 51.22 c -2.65,23.371 -2.65,46.988 0,70.359 4.87,26.109 60.55,93.551 58.86,151.434"
         fill="#e0e0e0"
         id="path29" />
      <path
         transform="matrix(0.1,0,0,-0.1,0,540)"
         d="M 6357.47,900.242 V 678.098 h -51.33 c 2.66,23.379 2.66,46.98 0,70.359 -4.94,26.109 -60.55,93.551 -58.93,151.434"
         fill="#ebebeb"
         id="path30" />
      <path
         transform="matrix(0.1,0,0,-0.1,0,540)"
         d="M 6712.23,900.242 V 678.098 h -51.26 c 2.66,23.379 2.66,46.98 0,70.359 -4.87,26.109 -60.55,93.551 -58.85,151.434"
         fill="#e0e0e0"
         id="path31" />
      <path
         transform="matrix(0.1,0,0,-0.1,0,540)"
         d="m 5511.39,893.164 h 1227.75 v 1102.48 H 5511.39 Z"
         fill="#f5f5f5"
         id="path32" />
      <path
         transform="matrix(0.1,0,0,-0.1,0,540)"
         d="m 6408.36,1995.65 9.15,-1102.486 h 321.64 V 1995.65 h -330.79"
         fill="#e0e0e0"
         id="path33" />
      <path
         transform="matrix(0.1,0,0,-0.1,0,540)"
         d="m 5566.62,1633.96 h 788.1995 v 280.5589 H 5566.62 Z"
         fill="#ebebeb"
         id="path34" />
      <path
         transform="matrix(0.1,0,0,-0.1,0,540)"
         d="m 5566.62,1297.57 h 788.1995 v 280.5589 H 5566.62 Z"
         fill="#ebebeb"
         id="path35" />
      <path
         transform="matrix(0.1,0,0,-0.1,0,540)"
         d="m 5566.62,961.031 h 788.1995 V 1241.59 H 5566.62 Z"
         fill="#ebebeb"
         id="path36" />
      <path
         transform="matrix(0.1,0,0,-0.1,0,540)"
         d="m 5868.77,2312.42 -33.98,-315.52 h 435.58 l 36.14,315.52 h -437.74"
         fill="#e0e0e0"
         id="path37" />
      <path
         transform="matrix(0.1,0,0,-0.1,0,540)"
         d="m 5886.74,2289.78 -33.1,-276.06 h 393.13 l 31.79,276.06 h -391.82"
         fill="#ffffff"
         id="path38" />
      <path
         transform="matrix(0.1,0,0,-0.1,0,540)"
         d="m 5952.86,2243.31 -20.36,-183.2 h 248.04 l 12.76,183.2 h -240.44"
         fill="#ebebeb"
         id="path39" />
      <path
         transform="matrix(0.1,0,0,-0.1,0,540)"
         d="m 6290.95,2176.57 89.98,-180.92 -110.56,1.25 20.58,179.67"
         fill="#ebebeb"
         id="path40" />
      <path
         transform="matrix(0.1,0,0,-0.1,0,540)"
         d="m 5989.59,1759.64 c 0.07,-15.93 -12.83,-28.91 -28.77,-28.99 -15.94,0 -28.89,12.83 -28.94,28.76 -0.05,15.94 12.82,28.92 28.76,28.99 0.03,0 0.06,0 0.09,0 15.88,0 28.79,-12.91 28.86,-28.76"
         fill="#e0e0e0"
         id="path41" />
      <path
         transform="matrix(0.1,0,0,-0.1,0,540)"
         d="m 5989.59,1419.78 c 0,-15.93 -12.91,-28.84 -28.86,-28.84 -15.94,0 -28.85,12.91 -28.85,28.84 0,15.93 12.91,28.84 28.85,28.84 15.88,0.07 28.79,-12.76 28.86,-28.69 0,-0.08 0,-0.08 0,-0.15"
         fill="#e0e0e0"
         id="path42" />
      <path
         transform="matrix(0.1,0,0,-0.1,0,540)"
         d="m 5989.59,1080 c 0,-15.93 -12.91,-28.84 -28.86,-28.84 -15.94,0 -28.85,12.91 -28.85,28.84 0,15.93 12.91,28.84 28.85,28.84 15.95,0 28.86,-12.91 28.86,-28.84"
         fill="#e0e0e0"
         id="path43" />
      <path
         transform="matrix(0.1,0,0,-0.1,0,540)"
         d="m 6353.57,3787.86 -696.05,6.71 19.38,-907.17 696.06,-2.5 -19.39,902.96"
         fill="#e0e0e0"
         id="path44" />
      <path
         transform="matrix(0.1,0,0,-0.1,0,540)"
         d="m 6308.72,3747.45 -609.34,15.71 17.61,-822.73 609.14,-7.52 -17.41,814.54"
         fill="#fafafa"
         id="path45" />
      <path
         transform="matrix(0.1,0,0,-0.1,0,540)"
         d="m 6204.73,3624.5 -404.37,6.71 12.39,-575.06 403.93,8.63 -11.95,559.72"
         fill="#ebebeb"
         id="path46" />
      <path
         transform="matrix(0.1,0,0,-0.1,0,540)"
         d="m 5812.75,3056.15 397.66,304.09 -410.05,270.97 z"
         fill="#f5f5f5"
         id="path47" />
      <path
         transform="matrix(0.1,0,0,-0.1,0,540)"
         d="m 9349,4260.77 -610.76,5.9 17.12,-795.87 610.6,-2.22 -16.96,792.19"
         fill="#e0e0e0"
         id="path48" />
      <path
         transform="matrix(0.1,0,0,-0.1,0,540)"
         d="m 9309.54,4225.15 -534.57,13.94 15.49,-721.75 534.42,-6.57 -15.34,714.38"
         fill="#fafafa"
         id="path49" />
      <path
         transform="matrix(0.1,0,0,-0.1,0,540)"
         d="m 9218.3,4117.39 -354.6,5.9 10.76,-504.47 354.39,7.52 -10.55,491.05"
         fill="#ebebeb"
         id="path50" />
      <path
         transform="matrix(0.1,0,0,-0.1,0,540)"
         d="m 8874.46,3618.82 348.86,266.77 -359.62,237.7 z"
         fill="#f5f5f5"
         id="path51" />
      <path
         transform="matrix(0.1,0,0,-0.1,0,540)"
         d="m 8664.86,1268.44 c -2.51,-7.82 88.5,-354.034 88.5,-354.034 l 62.55,13.008 -86,341.026"
         fill="#ebebeb"
         id="path52" />
      <path
         transform="matrix(0.1,0,0,-0.1,0,540)"
         d="M 9149.13,1317.93 9024.11,914.406 h 72.94 l 119.78,374.824 -67.7,28.7"
         fill="#f5f5f5"
         id="path53" />
      <path
         transform="matrix(0.1,0,0,-0.1,0,540)"
         d="M 9263.59,1380.39 9120.43,914.406 h 72.95 l 137.92,437.294 -67.71,28.69"
         fill="#ebebeb"
         id="path54" />
      <path
         transform="matrix(0.1,0,0,-0.1,0,540)"
         d="m 8709.11,942.992 72.94,-252.504 h 367.08 l 67.7,252.504 h -507.72"
         fill="#e0e0e0"
         id="path55" />
      <path
         transform="matrix(0.1,0,0,-0.1,0,540)"
         d="m 8898.44,942.992 c -0.3,0.871 -0.59,1.754 -0.81,2.656 l -1.92,7.7 c -1.7,7.078 -3.99,17.05 -7.01,29.808 l -25.22,110.264 -82.39,367.74 2.21,-1.85 h -64.23 l 2.21,2.88 c 32.67,-144.71 61.95,-274.37 82.9,-368.03 10.25,-46.62 18.59,-84.23 24.41,-110.633 2.66,-12.832 4.87,-22.836 6.42,-30.004 0.59,-3.273 1.1,-5.839 1.47,-7.789 0.15,-0.914 0.15,-1.828 0,-2.742 -0.29,0.871 -0.59,1.754 -0.81,2.656 -0.51,1.946 -1.1,4.512 -1.92,7.7 -1.77,7.078 -4.12,17.05 -7.22,29.808 -6.12,26.554 -14.9,63.794 -25.82,110.264 -21.46,93.67 -51.11,223.18 -84.23,367.74 l -0.73,2.8 h 69.03 l 0.44,-1.77 c 31.79,-144.71 60.41,-274.37 80.99,-368.03 10.02,-46.62 18.14,-84.23 23.82,-110.633 2.65,-12.832 4.72,-22.836 6.19,-30.004 l 1.55,-7.789 c 0.37,-0.871 0.59,-1.796 0.67,-2.742"
         fill="#e0e0e0"
         id="path56" />
      <path
         transform="matrix(0.1,0,0,-0.1,0,540)"
         d="m 9015.56,3095.61 c -2.07,0.81 -4.13,1.48 -6.27,1.92 -6.34,1.47 -12.91,1.47 -19.25,0 -10.25,-2.65 -19.77,-7.53 -27.88,-14.31 -10.99,-9.59 -20.58,-20.65 -28.32,-33.04 -18.14,-27.8 -32.38,-66.16 -49.05,-111 -19.25,-51.11 -35.84,-103.18 -49.86,-155.99 -2.65,-4.87 -6.12,-9.22 -10.32,-12.83 -4.35,-3.98 -10.18,-5.9 -16.08,-5.16 -5.68,1.47 -10.84,4.57 -14.75,8.84 -4.21,3.84 -8.11,7.9 -11.95,12.03 -7.67,8.48 -15.86,16.45 -24.56,23.89 -8.33,8.04 -19.47,12.61 -31.05,12.69 -11.72,-1.99 -22.05,-8.85 -28.4,-18.95 -6.26,-10.77 -9.66,-22.94 -9.8,-35.41 -1.55,-25.29 5.82,-50.89 10.25,-77.36 4.43,-26.41 9.96,-53.63 15.12,-81.28 2.65,-13.94 5.24,-27.88 7.89,-42.04 l 3.98,-21.47 c 2.44,-7.52 1.55,-15.78 -2.58,-22.64 -2.73,-3.61 -7.38,-5.23 -11.8,-3.98 -3.76,1.11 -7.38,2.95 -10.47,5.39 l -17.7,13.49 c -12.1,9.07 -24.56,17.56 -37.55,25.3 -12.98,8.04 -27.14,14.01 -41.96,17.7 -7.3,1.7 -14.97,1.7 -22.27,0 -7.3,-1.85 -13.8,-6.2 -18.29,-12.24 -8.49,-13.13 -12.69,-28.62 -11.95,-44.25 0.07,-16.08 1.62,-32.16 4.72,-47.95 6.41,-32.52 15.41,-64.38 26.99,-95.43 3.39,-7.89 5.98,-16.15 7.67,-24.56 0.89,-4.87 -0.29,-9.81 -3.24,-13.72 -0.81,-0.96 -1.63,-1.84 -2.58,-2.58 -0.96,-0.89 -2.14,-1.62 -3.47,-2.07 -2.65,-0.37 -5.39,0.22 -7.67,1.78 -7.38,4.71 -14.23,10.17 -20.43,16.29 l -18.96,17.71 c -12.39,12.01 -25.88,22.86 -40.27,32.37 -7.15,4.72 -15.04,8.34 -23.3,10.62 -7.89,2.51 -16.52,1.4 -23.6,-2.87 -6.86,-5.02 -11.58,-12.32 -13.35,-20.58 -2.14,-8.41 -3.25,-17.11 -3.17,-25.81 0.07,-17.93 2.28,-35.77 6.63,-53.11 8.71,-35.33 21.61,-69.47 38.5,-101.7 16.75,-33.05 35.85,-64.84 57.23,-95.15 10.7,-15.34 22.21,-30.16 34.52,-44.25 11.88,-14.68 23.9,-29.28 35.92,-44.25 v -0.52 l -2.14,0.89 56.35,8.11 c 18.66,2.21 37.17,5.46 55.46,9.59 36.14,8.11 71.62,18.81 106.21,31.93 34.15,12.62 66.67,29.21 96.91,49.49 14.83,9.81 28.47,21.47 40.42,34.59 5.97,6.42 11.06,13.65 15.19,21.32 4.2,7.3 5.61,15.93 3.84,24.19 -2.29,7.96 -7.89,14.6 -15.49,18.14 -7.67,3.76 -15.86,6.35 -24.34,7.75 -17.04,2.58 -34.29,3.61 -51.56,3.09 h -25.88 c -8.85,-0.29 -17.78,0.23 -26.55,1.7 -2.66,0.37 -5.17,1.77 -6.86,3.91 -0.67,1.18 -1.03,2.51 -1.18,3.91 -0.15,1.18 -0.15,2.43 0,3.61 0.59,4.87 3.02,9.29 6.86,12.32 6.93,5.01 14.38,9.37 22.2,12.98 29.43,15.19 57.6,32.75 84.15,52.51 12.83,9.59 24.71,20.43 35.4,32.38 11.06,11.06 18.36,25.3 20.87,40.71 0.74,7.52 -1.1,15.05 -5.31,21.32 -4.2,6.27 -9.88,11.43 -16.44,15.04 -13.35,7.38 -27.74,12.54 -42.78,15.34 -14.75,2.95 -29.72,5.17 -44.77,6.42 l -22.27,2.14 c -3.99,0.22 -7.89,1.33 -11.44,3.1 -4.05,2.14 -6.41,6.49 -5.89,10.99 1.62,7.74 6.48,14.45 13.34,18.44 l 17.71,13.05 34.07,25.96 65.86,50 c 21.09,16.53 43.66,30.54 59.59,50.38 8.19,9.22 13.8,20.43 16.3,32.52 2.07,11.73 -0.96,23.83 -8.33,33.19 -3.84,4.28 -8.85,7.38 -14.38,8.85 -5.54,1.7 -11.29,2.58 -17.11,2.88 -11.36,0.29 -22.79,-0.15 -34.15,-1.25 -5.68,0 -11.36,-0.82 -16.89,-0.89 -5.83,-0.44 -11.66,0.81 -16.74,3.61 -4.94,3.32 -8.19,8.71 -8.85,14.61 -0.67,5.53 -0.3,11.06 0.95,16.44 25.38,48.02 48.24,97.29 68.6,147.59 17.7,44.25 33.04,82.31 38.49,115.05 2.73,14.24 3.32,28.92 1.78,43.37 -1.11,10.47 -4.65,20.58 -10.33,29.5 -3.47,5.53 -8.11,10.1 -13.65,13.42 -1.84,1.11 -3.83,2.14 -5.89,2.88 2.13,-0.59 4.2,-1.4 6.04,-2.58 5.76,-3.24 10.62,-7.74 14.16,-13.28 5.83,-8.99 9.44,-19.17 10.77,-29.79 1.7,-14.6 1.26,-29.36 -1.33,-43.81 -5.31,-32.82 -20.35,-70.81 -37.98,-115.06 -19.91,-50.89 -42.48,-100.67 -67.48,-149.27 -1.18,-5.02 -1.48,-10.18 -0.89,-15.27 0.52,-5.02 3.17,-9.66 7.3,-12.61 4.65,-2.51 9.81,-3.55 15.05,-3.1 5.46,0 11.06,0.52 16.74,0.96 11.51,1.18 23.01,1.62 34.59,1.32 5.98,-0.22 11.95,-1.25 17.7,-2.94 6.05,-1.63 11.58,-4.88 15.93,-9.45 7.82,-10.03 10.99,-22.86 8.85,-35.4 -2.58,-12.68 -8.4,-24.49 -17.03,-34.15 -16.38,-20.35 -39.09,-34.51 -60.04,-51.18 l -65.79,-50.08 -34,-25.89 -17.26,-13.12 c -2.87,-2 -5.53,-4.29 -7.89,-6.94 -2.06,-2.51 -3.54,-5.6 -4.05,-8.85 -0.3,-3.02 1.33,-5.9 3.98,-7.23 3.17,-1.55 6.56,-2.43 10.03,-2.58 l 22.27,-2.14 c 15.2,-1.33 30.24,-3.46 45.14,-6.49 15.49,-2.8 30.46,-8.11 44.25,-15.63 7.08,-4.06 13.13,-9.66 17.7,-16.38 4.65,-7 6.79,-15.41 6.05,-23.82 -2.65,-16.3 -10.25,-31.42 -21.9,-43.14 -10.99,-12.17 -23.09,-23.24 -36.29,-33.05 -26.7,-19.98 -55.02,-37.76 -84.67,-53.1 -7.52,-3.39 -14.68,-7.6 -21.39,-12.39 -3.02,-2.29 -4.94,-5.68 -5.31,-9.37 -0.15,-0.88 -0.15,-1.76 0,-2.65 0,-0.74 0,-2.44 0.59,-2.29 1.11,-1.03 2.58,-1.69 4.06,-1.91 8.33,-1.33 16.74,-1.85 25.15,-1.56 h 25.81 c 17.55,0.59 35.11,-0.44 52.44,-3.09 8.92,-1.4 17.55,-4.21 25.67,-8.26 8.62,-4.13 15.04,-11.73 17.7,-20.95 1.99,-9.29 0.51,-19.03 -4.28,-27.29 -4.28,-8.03 -9.51,-15.48 -15.71,-22.2 -12.24,-13.42 -26.11,-25.37 -41.3,-35.4 -30.46,-20.5 -63.36,-37.32 -97.87,-50 -34.89,-13.28 -70.66,-24.05 -107.09,-32.24 -18.37,-4.12 -36.95,-7.37 -55.69,-9.51 l -56.35,-8.26 h -1.32 l -0.81,1.03 h -0.45 l -35.91,44.26 c -12.32,14.16 -23.83,28.91 -34.6,44.25 -21.53,30.53 -40.86,62.54 -57.74,95.88 -16.89,32.6 -29.87,67.11 -38.65,102.74 -4.5,17.62 -6.79,35.77 -6.79,53.91 0,9.15 1.11,18.22 3.32,27.07 2.14,9.29 7.52,17.48 15.27,23.01 8.11,5.09 18.07,6.34 27.21,3.54 8.71,-2.43 16.89,-6.2 24.42,-11.14 14.67,-9.66 28.32,-20.72 40.93,-32.89 l 18.96,-17.7 c 5.97,-5.9 12.61,-11.14 19.61,-15.71 1.26,-0.89 2.81,-1.4 4.35,-1.4 0,0 1.33,0.81 1.92,1.25 l 1.99,1.92 c 2.14,3.02 2.95,6.78 2.29,10.47 -1.7,8.11 -4.2,16.01 -7.45,23.6 -11.65,31.27 -20.65,63.43 -27.07,96.1 -3.17,16.08 -4.72,32.46 -4.72,48.83 -0.66,16.52 3.84,32.89 12.91,46.68 5.09,6.72 12.24,11.51 20.36,13.65 7.96,1.84 16.22,1.84 24.19,0 15.19,-3.61 29.79,-9.59 43.07,-17.7 13.13,-7.82 25.81,-16.3 37.91,-25.59 l 17.7,-13.43 c 2.65,-2.14 5.68,-3.76 8.85,-4.87 2.95,-0.88 6.05,0.23 7.89,2.66 1.77,2.66 2.73,5.68 2.88,8.85 0.15,3.47 -0.3,7.01 -1.11,10.4 -1.32,7.23 -2.58,14.31 -3.91,21.39 -2.65,14.16 -5.23,28.17 -7.81,42.04 -5.02,27.73 -10.03,54.87 -14.9,81.28 -4.87,26.47 -11.73,52.14 -10.18,78.25 0.22,12.98 3.83,25.59 10.4,36.73 6.93,10.91 18.14,18.36 30.9,20.35 6.27,0.52 12.54,-0.74 18.14,-3.61 5.46,-2.66 10.55,-5.98 15.12,-9.81 8.78,-7.6 17.04,-15.71 24.79,-24.27 3.83,-4.12 7.66,-8.11 11.72,-11.94 3.62,-3.84 8.19,-6.57 13.28,-7.9 5.01,-0.51 10.1,1.11 13.86,4.5 3.91,3.4 7.16,7.38 9.59,11.88 14.16,52.95 31.05,105.02 50.6,156.21 16.81,44.69 31.34,83.19 49.85,111 7.9,12.39 17.63,23.6 28.84,33.11 8.26,6.86 18,11.66 28.4,14.16 6.41,1.48 13.05,1.48 19.47,0 2.58,-0.29 5.09,-1.1 7.45,-2.21"
         fill="#263238"
         id="path57" />
      <path
         transform="matrix(0.1,0,0,-0.1,0,540)"
         d="m 8969.09,2975.25 c -0.14,-1.04 -0.44,-2 -0.88,-2.96 l -3.03,-8.33 c -2.95,-7.52 -7,-18.22 -12.09,-31.71 -10.84,-27.88 -26.11,-67.86 -45.07,-116.98 L 8761.03,2429.1 c -57.23,-150.46 -109.6,-287.42 -148.39,-385.81 -19.25,-49.19 -35.4,-88.94 -46.32,-116.38 -5.53,-13.5 -9.88,-23.97 -12.98,-31.42 -1.47,-3.47 -2.5,-6.12 -3.39,-8.26 l -1.33,-2.66 c 0.15,1.04 0.45,1.92 0.89,2.88 0.66,2.07 1.77,4.87 2.95,8.26 2.95,7.67 7,18.29 12.17,31.86 10.76,27.88 26.1,67.71 45.06,116.83 l 146.99,386.1 c 57.16,150.9 109.45,287.27 148.32,385.66 19.32,49.27 35.4,89.09 46.39,116.38 5.46,13.5 9.81,24.12 12.91,31.57 1.47,3.32 2.58,6.05 3.47,8.11"
         fill="#263238"
         id="path58" />
      <path
         transform="matrix(0.1,0,0,-0.1,0,540)"
         d="m 8973.89,2669.46 c -7.01,-5.01 -14.39,-9.44 -22.13,-13.2 l -54.21,-30.09 c -21.24,-11.8 -40.49,-22.28 -54.8,-29.5 -7.45,-4.21 -15.34,-7.67 -23.6,-10.26 7.08,4.95 14.46,9.37 22.13,13.21 l 53.99,30.53 c 21.23,11.8 40.63,22.05 54.94,29.06 7.52,4.13 15.49,7.6 23.68,10.25"
         fill="#263238"
         id="path59" />
      <path
         transform="matrix(0.1,0,0,-0.1,0,540)"
         d="m 8812,2592.09 c -1.18,-0.51 -22.2,39.68 -46.98,89.76 -24.79,50.08 -44.26,91.16 -42.93,91.75 1.33,0.67 22.2,-39.6 47.05,-89.76 24.86,-50.07 43.96,-91.16 42.86,-91.75"
         fill="#263238"
         id="path60" />
      <path
         transform="matrix(0.1,0,0,-0.1,0,540)"
         d="m 8734.63,2356.38 c -7.08,5.23 -13.57,11.21 -19.47,17.7 -11.51,11.51 -26.55,27.88 -42.93,46.83 -16.37,18.96 -29.64,36.8 -39.01,50.08 -5.53,6.86 -10.33,14.31 -14.24,22.13 6.05,-6.27 11.66,-13.06 16.82,-20.14 10.03,-12.76 23.97,-30.16 39.97,-49.04 16.01,-18.89 30.91,-35.4 41.68,-47.5 6.26,-6.27 11.94,-12.91 17.18,-20.06"
         fill="#263238"
         id="path61" />
      <path
         transform="matrix(0.1,0,0,-0.1,0,540)"
         d="m 8896.52,2394.43 c -7.6,-3.02 -15.41,-5.3 -23.38,-6.86 -14.53,-3.61 -34.67,-8.33 -57.01,-13.27 -22.28,-4.94 -42.63,-8.85 -57.31,-12.02 -7.89,-1.99 -16,-3.25 -24.12,-3.69 7.6,3.02 15.42,5.31 23.38,6.86 14.53,3.61 34.67,8.85 57.09,13.35 22.42,4.5 42.55,8.85 57.23,11.95 7.97,1.99 16.01,3.24 24.12,3.68"
         fill="#263238"
         id="path62" />
      <path
         transform="matrix(0.1,0,0,-0.1,0,540)"
         d="m 8854.63,2177.6 c -9.81,-3.39 -19.84,-6.05 -30.09,-8.04 -18.74,-4.35 -44.26,-10.1 -73.24,-16.08 -29.06,-6.05 -54.8,-11.35 -73.68,-14.9 -10.11,-2.36 -20.36,-4.05 -30.68,-4.87 9.81,3.47 19.84,6.13 30.09,8.04 18.66,4.36 44.25,10.11 73.24,16.16 29.05,5.97 54.72,11.28 73.6,14.82 10.11,2.43 20.43,4.06 30.76,4.87"
         fill="#263238"
         id="path63" />
      <path
         transform="matrix(0.1,0,0,-0.1,0,540)"
         d="m 8651.51,2136.22 c -2.44,1.7 -4.65,3.69 -6.64,5.98 -4.06,4.13 -9.73,10.1 -16.74,17.7 -13.87,15.26 -32.53,36.73 -52.22,61.29 -19.62,24.48 -36.51,47.49 -48.31,64.38 -5.9,8.41 -10.55,15.34 -13.64,20.21 -1.85,2.43 -3.32,5.09 -4.43,7.9 2.29,-2.07 4.21,-4.36 5.9,-6.86 l 14.83,-19.33 c 12.39,-16.37 29.65,-38.94 49.34,-63.43 19.62,-24.41 37.76,-46.24 51.04,-61.95 7.52,-8.11 14.52,-16.82 20.87,-25.89"
         fill="#263238"
         id="path64" />
      <path
         transform="matrix(0.1,0,0,-0.1,0,540)"
         d="m 8563,1543.32 c -153.62,123.9 -175.9,335.72 -156.65,523.43 3.32,31.34 2.07,64.68 18.88,91.23 16.82,26.55 53.11,42.93 80.25,27.81 22.57,-12.62 30.82,-40.5 42.33,-63.73 15.42,-31.12 39.24,-57.23 68.82,-75.45 19.32,-11.72 43.66,-19.76 64.08,-10.25 28.18,13.13 33.93,50.3 35.85,81.5 l 10.92,174.72 c 1.91,31.35 4.05,63.21 15.85,92.12 11.73,28.98 35.4,55.09 65.35,61.44 30.02,6.41 65.86,-13.43 70.06,-44.26 0.3,-12.98 -0.29,-26.03 -1.77,-38.94 0,-12.98 5.02,-27.8 17.04,-32.23 12.02,-4.42 25.3,3.47 35.4,11.95 34.45,29.35 59.08,68.44 82.31,107.46 23.31,39.01 45.88,79.06 77.52,111.44 31.71,32.38 73.9,56.94 118.89,56.35 44.99,-0.52 90.64,-31.42 98.98,-76.12 8.26,-44.69 -20.51,-87.76 -50.9,-121.47 -45.21,-50.15 -97.42,-93.44 -155.1,-128.62 -11.21,-5.09 -20.5,-13.65 -26.55,-24.41 -8.18,-20.36 10.1,-42.41 30.17,-50.75 22.79,-9.29 48.23,-8.85 72.42,-13.13 24.19,-4.35 49.86,-17.11 57.46,-40.71 10.62,-32.9 -18.44,-64.46 -46.25,-84.67 -55.31,-40.19 -117.19,-70.73 -182.91,-90.05 -23.6,-6.86 -48.31,-12.46 -68,-27.36 -19.62,-14.9 -32.75,-42.19 -23.01,-64.98 9.74,-22.72 37.98,-31.86 61.95,-28.99 24.05,2.81 46.84,14.39 70.36,21.47 44.26,13.27 99.35,6.49 123.91,-32.46 16.38,-25.66 15.71,-59.74 4.57,-88.5 -12.46,-27.95 -30.38,-53.1 -52.66,-73.98 -73.68,-77.07 -166.46,-133.27 -268.9,-162.7 -101.93,-27.73 -194.71,-30.68 -291.33,12.32"
         fill="#16b3ac"
         id="path65" />
    </g>
  </g>
  <g
     clip-path="url(#clip_3)"
     id="g104"
     transform="translate(-551.139,-111.333)">
    <path
       transform="matrix(0.1,0,0,-0.1,0,540)"
       d="m 8550.98,1403.85 c 14.75,86.59 37.76,171.62 68.67,253.93 38.28,100.31 82.31,198.4 131.8,293.69 l 38.5,75.23 c 12.75,24.71 25.29,49.12 39.09,72.35 26.62,44.4 55.6,87.25 86.87,128.48 29.66,39.61 59.08,76.04 86.96,109.97 27.88,33.85 54.65,64.83 80.1,92.11 40.05,43.23 83.41,83.2 129.73,119.56 16.37,12.83 29.43,22.42 38.35,28.76 l 10.18,7.16 c 1.11,0.88 2.29,1.62 3.54,2.29 -0.96,-1.04 -1.99,-1.92 -3.17,-2.74 l -9.81,-7.66 c -8.85,-6.64 -21.54,-16.45 -37.61,-29.66 -45.73,-36.94 -88.51,-77.21 -128.19,-120.58 -25.22,-27.29 -51.7,-58.49 -79.65,-92.34 -27.95,-33.93 -57.09,-70.81 -86.44,-110.11 -31.13,-41.09 -59.89,-83.86 -86.22,-128.19 -13.72,-23.08 -26.55,-47.35 -38.87,-72.06 l -38.5,-75.22 c -49.34,-95.07 -93.44,-192.87 -131.94,-292.96 -31.05,-81.86 -54.36,-166.53 -69.7,-252.75"
       fill="#263238"
       id="path67" />
    <path
       transform="matrix(0.1,0,0,-0.1,0,540)"
       d="m 8830.73,2099.27 c -1.25,4.43 -1.99,9 -2.21,13.57 -0.96,8.86 -2.14,21.39 -3.25,37.18 -2.21,31.34 -3.91,74.86 -5.6,122.72 -1.7,47.94 -3.99,91.38 -6.71,122.73 -1.33,15.56 -2.51,28.17 -3.47,36.95 -0.81,4.57 -1.03,9.14 -0.81,13.72 1.47,-4.35 2.5,-8.78 3.02,-13.35 1.62,-8.85 3.47,-21.32 5.31,-37.03 3.84,-31.2 6.71,-74.63 8.85,-122.72 2.14,-48.09 2.95,-90.13 3.91,-122.88 0.59,-14.75 1.03,-27.14 1.48,-37.17 0.29,-4.57 0.14,-9.15 -0.52,-13.72"
       fill="#263238"
       id="path68" />
    <path
       transform="matrix(0.1,0,0,-0.1,0,540)"
       d="m 9237.48,2146.84 c -5.31,-0.88 -10.77,-1.18 -16.15,-0.88 -10.4,0 -25.3,0 -44.25,-1.26 -37.03,-1.47 -88.51,-5.23 -144.34,-11.94 -55.9,-6.71 -106.87,-14.97 -143.3,-22.06 -18.22,-3.31 -32.97,-6.56 -43.15,-8.84 -5.16,-1.41 -10.54,-2.29 -15.93,-2.73 5.02,2.06 10.18,3.76 15.42,4.94 10.02,2.87 24.63,6.56 42.85,10.54 36.28,8.04 87.03,16.97 143.37,23.83 48.16,5.82 96.55,9.22 145,10.17 18.59,0 33.64,0 44.25,-0.51 5.46,0.07 10.92,-0.37 16.23,-1.26"
       fill="#263238"
       id="path69" />
    <path
       transform="matrix(0.1,0,0,-0.1,0,540)"
       d="m 8625.18,1665.01 c -1.11,1.55 -1.92,3.24 -2.43,5.02 l -5.91,15.04 c -5.09,13.06 -11.87,32.16 -19.91,55.76 -16.22,47.35 -36.58,113.51 -58.04,186.67 -21.54,73.24 -41.16,139.47 -56.43,187.11 -7.44,23.16 -13.64,42.19 -18.14,56.35 l -4.87,15.34 c -0.66,1.77 -1.1,3.61 -1.32,5.46 1.03,-1.55 1.84,-3.24 2.43,-5.01 1.55,-4.06 3.54,-8.86 5.83,-15.05 5.01,-12.98 11.87,-32.16 19.99,-55.76 16.22,-47.35 36.58,-113.43 57.96,-186.74 21.39,-73.31 41.23,-139.4 56.5,-187.04 7.37,-23.16 13.5,-42.19 17.7,-56.35 l 4.87,-15.34 c 0.81,-1.7 1.4,-3.54 1.77,-5.46"
       fill="#263238"
       id="path70" />
    <path
       transform="matrix(0.1,0,0,-0.1,0,540)"
       d="m 9170.66,1800.42 c -1.7,-0.88 -3.54,-1.54 -5.46,-1.84 l -15.85,-4.2 -58.42,-14.61 c -49.34,-12.24 -117.27,-30.09 -192.27,-49.86 -75.09,-19.84 -143.23,-37.02 -192.87,-48.38 -24.78,-5.6 -44.91,-10.03 -58.85,-12.83 l -16.15,-3.1 c -1.85,-0.44 -3.69,-0.66 -5.61,-0.59 1.7,0.81 3.54,1.4 5.38,1.77 l 15.93,4.13 58.42,14.61 c 49.26,12.31 117.27,30.23 192.27,50 75.08,19.84 143.23,37.02 192.79,48.38 24.78,5.61 44.99,9.96 58.86,12.69 l 16.08,3.09 c 1.91,0.52 3.83,0.74 5.75,0.74"
       fill="#263238"
       id="path71" />
    <path
       transform="matrix(0.1,0,0,-0.1,0,540)"
       d="m 6452.47,1045.48 h 2146.3009 v 2941 H 6452.47 Z"
       fill="#455a64"
       id="path72" />
    <path
       transform="matrix(0.1,0,0,-0.1,0,540)"
       d="M 8513.88,1220.35 H 6631.25 V 3867.59 H 8513.88 V 1549.66 1220.35"
       fill="#e0e0e0"
       id="path73" />
    <path
       transform="matrix(0.1,0,0,-0.1,0,540)"
       d="M 8484.16,1269.47 H 6618.41 V 3902.55 H 8484.16 V 1597.01 1269.47"
       fill="#ebebeb"
       id="path74" />
    <path
       transform="matrix(0.1,0,0,-0.1,0,540)"
       d="M 8283.7,1474.36 8068.78,1299.41 H 6583.6 v 2596.5 H 8466.31 V 1622.45 L 8283.7,1474.36"
       fill="#fafafa"
       id="path75" />
    <path
       transform="matrix(0.1,0,0,-0.1,0,540)"
       d="m 8283.7,1474.65 c 0,0 3.84,3.25 11.5,9.52 l 34.45,28.17 136.22,110.93 v -0.59 c 0,373.48 -0.74,1203.66 -1.33,2273.53 l 2,-2.14 H 6600.27 6583.9 l 2.28,2.29 c 0,-976.21 0,-1876.74 -0.51,-2596.5 l -1.77,1.84 1485.17,-1.03 h -0.51 l 161.45,130.84 40.41,32.67 c 8.85,7.3 13.57,10.84 13.57,10.84 l -13.27,-11.06 -40.49,-33.56 -160.86,-131.5 -1485.77,-1.26 h -1.84 v 1.85 c 0,719.83 0,1620.37 -0.44,2596.57 v 2.29 h 18.66 1866.33 2.07 v -2.07 c -0.59,-1070.17 -1.11,-1899.97 -1.33,-2273.46 l -136.74,-110.41 -34.59,-28.91"
       fill="#263238"
       id="path76" />
    <path
       transform="matrix(0.1,0,0,-0.1,0,540)"
       d="m 7270.91,4077.35 h 514.66 c 69.18,0 125.23,-56.06 125.23,-125.24 v -138.8 h -770.5 v 133.49 c 0.07,72.13 58.56,130.55 130.61,130.55"
       fill="#16b3ac"
       id="path77" />
    <path
       transform="matrix(0.1,0,0,-0.1,0,540)"
       d="m 7329.11,4077.35 -28.18,142.49 h 443.7 l -24.7,-142.49 h -390.82"
       fill="#16b3ac"
       id="path78" />
    <path
       transform="matrix(0.1,0,0,-0.1,0,540)"
       d="m 7097.67,3165.09 h -317.141 v 317.2152 h 317.141 z m -308.29,8.85 h 299.441 v 299.512 H 6789.38 Z"
       fill="#16b3ac"
       id="path79" />
    <path
       transform="matrix(0.1,0,0,-0.1,0,540)"
       d="m 8218.57,3405.6 c 0,-1.18 -220.81,-2.29 -493.04,-2.29 -272.3,0 -493.19,1.11 -493.19,2.29 0,1.25 220.75,2.36 493.19,2.36 272.37,0 493.04,-1.03 493.04,-2.36"
       fill="#263238"
       id="path80" />
    <path
       transform="matrix(0.1,0,0,-0.1,0,540)"
       d="m 8218.57,3339.81 c 0,-1.33 -220.81,-2.36 -493.04,-2.36 -272.3,0 -493.19,1.03 -493.19,2.36 0,1.33 220.75,2.28 493.19,2.28 272.37,0 493.04,-1.1 493.04,-2.28"
       fill="#263238"
       id="path81" />
    <path
       transform="matrix(0.1,0,0,-0.1,0,540)"
       d="m 8218.57,3273.88 c 0,-1.26 -220.81,-2.37 -493.04,-2.37 -272.3,0 -493.19,1.11 -493.19,2.37 0,1.17 220.75,2.28 493.19,2.28 272.37,0 493.04,-1.11 493.04,-2.28"
       fill="#263238"
       id="path82" />
    <path
       transform="matrix(0.1,0,0,-0.1,0,540)"
       d="m 8218.57,3207.94 c 0,-1.26 -220.81,-2.36 -493.04,-2.36 -272.3,0 -493.19,1.1 -493.19,2.36 0,1.18 220.75,2.28 493.19,2.28 272.37,0 493.04,-0.88 493.04,-2.28"
       fill="#263238"
       id="path83" />
    <path
       transform="matrix(0.1,0,0,-0.1,0,540)"
       d="m 7097.67,2676.25 h -317.141 v 317.215 h 317.141 z m -308.29,8.85 h 299.441 v 299.5163 H 6789.38 Z"
       fill="#16b3ac"
       id="path84" />
    <path
       transform="matrix(0.1,0,0,-0.1,0,540)"
       d="m 6843.59,2828.33 42.11,45.21 70.14,-56.13 160.63,155.99 38.5,-45.43 -202.23,-199.51 -109.15,99.87"
       fill="#16b3ac"
       id="path85" />
    <path
       transform="matrix(0.1,0,0,-0.1,0,540)"
       d="m 8218.57,2916.83 c 0,-1.25 -220.81,-2.28 -493.04,-2.28 -272.3,0 -493.19,1.03 -493.19,2.28 0,1.26 220.75,2.29 493.19,2.29 272.37,0 493.04,-1.03 493.04,-2.29"
       fill="#263238"
       id="path86" />
    <path
       transform="matrix(0.1,0,0,-0.1,0,540)"
       d="m 8218.57,2850.89 c 0,-1.25 -220.81,-2.28 -493.04,-2.28 -272.3,0 -493.19,1.03 -493.19,2.28 0,1.26 220.75,2.29 493.19,2.29 272.37,0 493.04,-0.96 493.04,-2.29"
       fill="#263238"
       id="path87" />
    <path
       transform="matrix(0.1,0,0,-0.1,0,540)"
       d="m 8218.57,2785.04 c 0,-1.33 -220.81,-2.29 -493.04,-2.29 -272.3,0 -493.19,0.96 -493.19,2.29 0,1.32 220.75,2.28 493.19,2.28 272.37,0 493.04,-1.03 493.04,-2.28"
       fill="#263238"
       id="path88" />
    <path
       transform="matrix(0.1,0,0,-0.1,0,540)"
       d="m 8218.57,2719.1 c 0,-1.26 -220.81,-2.29 -493.04,-2.29 -272.3,0 -493.19,1.03 -493.19,2.29 0,1.25 220.75,2.28 493.19,2.28 272.37,0 493.04,-1.03 493.04,-2.28"
       fill="#263238"
       id="path89" />
    <path
       transform="matrix(0.1,0,0,-0.1,0,540)"
       d="m 7097.67,2203.19 h -317.141 v 317.215 h 317.141 z m -308.29,8.85 h 299.441 v 299.512 H 6789.38 Z"
       fill="#16b3ac"
       id="path90" />
    <path
       transform="matrix(0.1,0,0,-0.1,0,540)"
       d="m 6843.59,2355.27 42.11,45.21 70.14,-56.12 160.63,155.98 38.5,-45.43 -202.23,-199.5 -109.15,99.86"
       fill="#16b3ac"
       id="path91" />
    <path
       transform="matrix(0.1,0,0,-0.1,0,540)"
       d="m 8218.57,2443.78 c 0,-1.26 -220.81,-2.29 -493.04,-2.29 -272.3,0 -493.19,1.03 -493.19,2.29 0,1.25 220.75,2.28 493.19,2.28 272.37,0 493.04,-0.96 493.04,-2.28"
       fill="#263238"
       id="path92" />
    <path
       transform="matrix(0.1,0,0,-0.1,0,540)"
       d="m 8218.57,2377.91 c 0,-1.32 -220.81,-2.28 -493.04,-2.28 -272.3,0 -493.19,0.96 -493.19,2.28 0,1.33 220.75,2.29 493.19,2.29 272.37,0 493.04,-1.03 493.04,-2.29"
       fill="#263238"
       id="path93" />
    <path
       transform="matrix(0.1,0,0,-0.1,0,540)"
       d="m 8218.57,2311.98 c 0,-1.33 -220.81,-2.29 -493.04,-2.29 -272.3,0 -493.19,0.96 -493.19,2.29 0,1.32 220.75,2.29 493.19,2.29 272.37,0 493.04,-1.04 493.04,-2.29"
       fill="#263238"
       id="path94" />
    <path
       transform="matrix(0.1,0,0,-0.1,0,540)"
       d="m 8218.57,2246.04 c 0,-1.25 -220.81,-2.28 -493.04,-2.28 -272.3,0 -493.19,1.03 -493.19,2.28 0,1.26 220.75,2.29 493.19,2.29 272.37,0 493.04,-1.03 493.04,-2.29"
       fill="#263238"
       id="path95" />
    <path
       transform="matrix(0.1,0,0,-0.1,0,540)"
       d="m 7097.67,1746.43 h -317.141 v 317.215 h 317.141 z m -308.29,8.86 h 299.441 v 299.5162 H 6789.38 Z"
       fill="#16b3ac"
       id="path96" />
    <path
       transform="matrix(0.1,0,0,-0.1,0,540)"
       d="m 6843.59,1898.52 42.11,45.21 70.14,-56.13 160.63,155.92 38.5,-45.29 -202.23,-199.5 -109.15,99.79"
       fill="#16b3ac"
       id="path97" />
    <path
       transform="matrix(0.1,0,0,-0.1,0,540)"
       d="m 8218.57,1987.09 c 0,-1.32 -220.81,-2.29 -493.04,-2.29 -272.3,0 -493.19,0.97 -493.19,2.29 0,1.33 220.75,2.29 493.19,2.29 272.37,0 493.04,-1.4 493.04,-2.29"
       fill="#263238"
       id="path98" />
    <path
       transform="matrix(0.1,0,0,-0.1,0,540)"
       d="m 8218.57,1921.16 c 0,-1.26 -220.81,-2.29 -493.04,-2.29 -272.3,0 -493.19,1.03 -493.19,2.29 0,1.25 220.75,2.29 493.19,2.29 272.37,0 493.04,-1.04 493.04,-2.29"
       fill="#263238"
       id="path99" />
    <path
       transform="matrix(0.1,0,0,-0.1,0,540)"
       d="m 8218.57,1855.22 c 0,-1.25 -220.81,-2.29 -493.04,-2.29 -272.3,0 -493.19,1.04 -493.19,2.29 0,1.26 220.75,2.29 493.19,2.29 272.37,0 493.04,-0.96 493.04,-2.29"
       fill="#263238"
       id="path100" />
    <path
       transform="matrix(0.1,0,0,-0.1,0,540)"
       d="m 8218.57,1789.36 c 0,-1.33 -220.81,-2.29 -493.04,-2.29 -272.3,0 -493.19,0.96 -493.19,2.29 0,1.33 220.75,2.28 493.19,2.28 272.37,0 493.04,-1.03 493.04,-2.28"
       fill="#263238"
       id="path101" />
    <path
       transform="matrix(0.1,0,0,-0.1,0,540)"
       d="m 8127.86,1729.25 -206.44,-427.48 h 147.36 z"
       fill="#e0e0e0"
       id="path102" />
    <path
       transform="matrix(0.1,0,0,-0.1,0,540)"
       d="m 8068.78,1299.41 59.08,427.48 338.45,-104.44 z"
       fill="#fafafa"
       id="path103" />
    <path
       transform="matrix(0.1,0,0,-0.1,0,540)"
       d="m 8068.78,1299.41 113.88,93.75 282.18,231.07 0.81,-3.91 -130.69,40.19 -207.4,64.31 2.73,1.77 c -17.7,-123.9 -32.82,-230.55 -43.51,-306.14 -10.7,-73.54 -16.23,-111.52 -17.71,-121.04 0,0.67 0,1.26 0,1.92 l 0.82,5.83 c 0.66,5.6 1.69,13.42 3.02,23.3 2.73,20.8 6.64,50.6 11.58,88.51 10.25,76.19 24.56,183.35 41.3,308.58 v 2.51 l 2.44,-0.74 207.83,-64.02 130.69,-40.41 4.06,-1.18 -3.32,-2.66 c -114.24,-92.19 -214.18,-172.73 -285.65,-230.11 l -83.48,-67.04 -22.28,-17.7 -5.68,-4.5"
       fill="#263238"
       id="path104" />
  </g>
  <g
     clip-path="url(#clip_5)"
     id="g114"
     transform="translate(-551.139,-111.333)">
    <path
       transform="matrix(0.1,0,0,-0.1,0,540)"
       d="m 6414.41,2717.03 v 0 c 43.89,-3.24 82.09,29.58 85.41,73.46 0.07,0.96 0.14,1.92 0.14,2.88 1.7,43.36 3.18,87.18 3.18,87.18 0,0 65.71,6.12 70.8,70.8 5.17,64.68 2.58,214.99 2.58,214.99 -73.31,36.95 -160.85,31.35 -228.86,-14.75 l 3.99,-228.64 v -123.16 c 0.07,-40.86 21.61,-79.66 62.76,-82.76"
       fill="#ffbe9d"
       id="path105" />
    <path
       transform="matrix(0.1,0,0,-0.1,0,540)"
       d="m 6508.82,3031 c -9.96,14.31 -29.21,18.52 -44.25,9.74 -15.2,-10.55 -20.51,-30.54 -12.54,-47.28 6.78,-12.17 18.36,-20.87 31.86,-24.04 12.24,-2.73 20.65,-14.09 19.54,-26.55 -2.73,-17.11 -10.69,-32.9 -22.86,-45.29 -19.99,-20.35 -46.69,-32.89 -75.23,-35.4 -27.66,-3.25 -59.37,2.51 -75.45,25.22 -11.8,16.6 -12.61,38.28 -13.05,58.56 -0.96,47.87 -2,95.81 -2.95,143.68 -1.03,17.33 0.07,34.59 3.24,51.63 3.39,17.11 13.13,32.37 27.29,42.62 15.78,10.48 35.85,11.36 53.77,17.11 22.56,7.38 41.67,22.2 62.76,33.05 21.09,10.77 46.84,17.25 68,6.63 15.19,-7.66 25.37,-22.79 40.05,-31.19 21.09,-11.95 49.64,-8.85 59.81,-40.2 3.62,-10.69 3.62,-22.27 0,-32.97 -14.23,-42.03 -66.23,-59.07 -103.77,-40.93 -0.74,-7.08 6.27,-22.86 -1.25,-45.36 -2.36,-7.3 -3.17,-18.14 -14.46,-18.44"
       fill="#263238"
       id="path106" />
    <path
       transform="matrix(0.1,0,0,-0.1,0,540)"
       d="m 6329.45,3165.09 c 10.32,20.5 17.33,42.55 20.87,65.27 3.39,23.09 -4.2,46.46 -20.43,63.13 -11.87,10.25 -27.14,15.71 -42.85,15.12 -30.54,-1.7 -56.64,-22.42 -65.34,-51.77 -7.38,-29.43 2.94,-60.55 26.55,-79.66 24.11,-18.51 56.27,-22.64 84.3,-10.99"
       fill="#263238"
       id="path107" />
    <path
       transform="matrix(0.1,0,0,-0.1,0,540)"
       d="m 6342.21,3188.54 c -1.03,-16.45 -14.31,-29.5 -30.83,-30.09 0,1.33 9.58,3.91 17.7,12.39 8.11,8.48 11.87,18.07 13.13,17.7"
       fill="#16b3ac"
       id="path108" />
    <path
       transform="matrix(0.1,0,0,-0.1,0,540)"
       d="m 6320.82,3172.61 c -5.02,-5.31 -11.06,-9.66 -17.7,-12.83 -7.08,-4.06 -14.98,-6.35 -23.16,-6.64 -10.47,-0.59 -20.65,3.98 -27.14,12.17 -5.83,8.7 -7.52,19.4 -4.8,29.42 2.07,7.82 5.76,15.2 10.85,21.47 4.27,6.05 9.51,11.21 15.41,15.49 -3.91,-6.12 -8.19,-12.03 -12.76,-17.71 -4.42,-6.12 -7.59,-13.12 -9.37,-20.5 -2.21,-8.85 -0.66,-18.14 4.35,-25.74 5.76,-7.01 14.39,-10.91 23.46,-10.62 7.59,0.08 14.97,1.92 21.75,5.31 11.51,5.9 18.67,10.84 19.11,10.18"
       fill="#263238"
       id="path109" />
    <path
       transform="matrix(0.1,0,0,-0.1,0,540)"
       d="m 6210.41,3099.23 c 1.33,-2.22 2.36,-4.65 3.1,-7.16 2.28,-6.64 5.53,-12.91 9.66,-18.59 5.53,-8.4 15.34,-12.9 25.37,-11.72 11.95,3.39 21.24,12.76 24.49,24.7 3.24,12.4 5.45,25.01 6.63,37.69 1.26,10.92 5.61,21.24 12.39,29.87 4.95,5.61 11.66,9.44 18.96,10.77 2.65,0.67 5.46,0.44 7.97,-0.66 0,0 -2.88,0 -7.6,-1.11 -6.64,-1.84 -12.54,-5.75 -16.82,-11.13 -6.04,-8.34 -9.73,-18.07 -10.69,-28.33 -1.03,-13.05 -3.17,-25.96 -6.49,-38.57 -3.69,-13.5 -14.46,-23.97 -28.03,-27.36 -6.12,-0.96 -12.39,0.22 -17.7,3.39 -4.42,2.66 -8.26,6.27 -11.13,10.47 -4.06,6.12 -7.09,12.84 -8.86,19.92 -0.96,2.5 -1.32,5.16 -1.25,7.82"
       fill="#263238"
       id="path110" />
    <path
       transform="matrix(0.1,0,0,-0.1,0,540)"
       d="m 6178.47,2553.23 c 0,0 -33.18,-242.65 0,-273.48 33.19,-30.76 64.91,-20.5 64.91,-20.5 l 63.13,53.1 12.39,241.24"
       fill="#ffbe9d"
       id="path111" />
    <path
       transform="matrix(0.1,0,0,-0.1,0,540)"
       d="m 6863.94,3234.49 42.11,45.21 70.15,-56.13 160.63,155.92 38.5,-45.36 -202.23,-199.5 -109.16,99.86"
       fill="#16b3ac"
       id="path112" />
    <path
       transform="matrix(0.1,0,0,-0.1,0,540)"
       d="m 7061.82,3222.17 -61.07,-39.24 c -2.73,24.2 -21.16,48.09 -20.28,35.92 0.89,-12.09 0,-75.01 0,-75.01 l -108.79,-229.15 c -14.75,-36.28 -44.76,-59.15 -67.18,-64.53 l -101.86,-30.24 39.75,-134.46 141.61,46.92 c 36.66,12.16 65.42,40.93 77.45,77.58 l 97.35,296.72 c 6.49,19.1 11.65,38.57 15.56,58.41 4.28,24.85 -12.54,57.08 -12.54,57.08"
       fill="#ffbe9d"
       id="path113" />
    <path
       transform="matrix(0.1,0,0,-0.1,0,540)"
       d="m 6561.48,715.977 -1.55,67.882 -127.3,-2.035 1.18,-99.39 7.96,-0.442 c 35.41,-1.328 178.86,-4.515 202.24,2.922 25.96,8.406 -82.53,31.063 -82.53,31.063"
       fill="#16b3ac"
       id="path114" />
  </g>
  <g
     clip-path="url(#clip_8)"
     id="g131"
     transform="translate(-551.139,-111.333)" />
  <g
     clip-path="url(#clip_9)"
     id="g154"
     transform="translate(-551.139,-111.333)">
    <path
       transform="matrix(0.1,0,0,-0.1,0,540)"
       d="m 5994.09,798.906 1.48,-1.593 4.64,-4.336 17.18,-15.579 c 14.46,-13.007 34.82,-30.796 57.75,-49.914 22.94,-19.117 44.26,-36.023 59.52,-48.058 l 18.37,-14.074 5.09,-3.715 1.84,-1.239 -1.69,1.504 -4.87,3.981 -17.7,14.43 c -15.34,12.21 -36.29,29.203 -59.23,48.32 -22.93,19.117 -43.36,36.73 -58.04,49.562 l -17.7,15.223 -4.8,4.16"
       fill="#263238"
       id="path131" />
    <path
       transform="matrix(0.1,0,0,-0.1,0,540)"
       d="m 6123.6,686.328 c 3.17,2.348 6.71,4.285 10.4,5.754 3.84,0.973 7.75,1.563 11.73,1.77 -3.98,1.453 -8.34,1.453 -12.25,0 -4.12,-1.223 -7.59,-3.895 -9.88,-7.524"
       fill="#263238"
       id="path132" />
    <path
       transform="matrix(0.1,0,0,-0.1,0,540)"
       d="m 6106.93,725.094 c 0,-0.442 2.95,0 6.2,1.152 3.25,1.149 5.9,2.211 5.75,2.652 -0.15,0.446 -2.95,0 -6.19,-1.148 -2.07,-0.457 -4.06,-1.367 -5.76,-2.656"
       fill="#263238"
       id="path133" />
    <path
       transform="matrix(0.1,0,0,-0.1,0,540)"
       d="m 6102.51,735.891 c 0,0 2.36,-0.707 5.38,-0.618 3.03,0.086 5.31,0.532 5.31,0.973 0,0.442 -2.43,0.707 -5.38,0.617 -1.85,0.09 -3.62,-0.25 -5.31,-0.972"
       fill="#263238"
       id="path134" />
    <path
       transform="matrix(0.1,0,0,-0.1,0,540)"
       d="m 6105.16,748.902 c 0,0 1.77,-2.48 4.57,-4.867 1.63,-1.609 3.55,-2.906 5.61,-3.808 0,0 -1.77,2.566 -4.57,4.957 -2.88,2.39 -5.24,4.425 -5.61,3.718"
       fill="#263238"
       id="path135" />
    <path
       transform="matrix(0.1,0,0,-0.1,0,540)"
       d="m 6108.85,757.223 c 1.99,-4.914 5.97,-8.75 10.92,-10.535 -1.7,1.859 -3.54,3.601 -5.46,5.222 -2.95,2.832 -4.65,5.84 -5.46,5.313"
       fill="#263238"
       id="path136" />
    <path
       transform="matrix(0.1,0,0,-0.1,0,540)"
       d="m 6117.41,731.199 c 1.69,-2.117 3.83,-3.886 6.27,-5.219 2.5,-1.625 5.16,-2.98 7.96,-4.074 1.62,-0.742 3.32,-1.312 5.09,-1.679 1.18,-0.184 2.29,0.058 3.25,0.707 0.95,0.765 1.4,2.05 1.1,3.273 -2.8,6.684 -9.95,10.402 -17.04,8.852 -2.06,-0.399 -3.98,-1.246 -5.6,-2.477 -0.59,-0.398 -1.18,-0.914 -1.62,-1.504 2.28,1.379 4.79,2.36 7.37,2.918 2.81,0.488 5.68,0.149 8.34,-0.973 3.17,-1.222 5.67,-3.636 7.08,-6.726 0,-1.594 -0.96,-2.477 -2.66,-2.211 -1.62,0.359 -3.24,0.867 -4.79,1.504 -2.73,1.012 -5.39,2.258 -7.89,3.715 -4.36,1.683 -6.72,3.894 -6.86,3.894"
       fill="#263238"
       id="path137" />
    <path
       transform="matrix(0.1,0,0,-0.1,0,540)"
       d="m 6118.51,729.164 c 0,0 2.29,0.711 4.43,3.719 1.18,1.82 1.92,3.879 2.14,6.019 0.44,2.801 -0.52,5.625 -2.58,7.61 -1.55,0.847 -3.54,0.258 -4.43,-1.328 -0.66,-1.106 -1.11,-2.344 -1.25,-3.629 -0.23,-2.086 -0.23,-4.196 0,-6.282 0,-1.949 0.51,-3.867 1.47,-5.578 0,0 0,2.215 0,5.578 -0.07,2.02 0.15,4.032 0.52,6.016 0,2.035 1.55,4.867 3.46,3.895 1.85,-0.973 1.92,-4.071 1.92,-6.106 -0.15,-1.953 -0.74,-3.859 -1.69,-5.578 -1.11,-1.582 -2.51,-3.043 -3.99,-4.336"
       fill="#263238"
       id="path138" />
    <path
       transform="matrix(0.1,0,0,-0.1,0,540)"
       d="m 6018.43,823.953 c 0,0 3.02,-2.035 7,-6.195 5.17,-5.481 8.78,-12.274 10.33,-19.649 1.47,-7.398 0.88,-15.05 -1.77,-22.125 -1.99,-5.488 -4.2,-8.41 -3.98,-8.851 0.66,0.582 1.25,1.277 1.69,2.035 1.33,1.902 2.44,3.953 3.25,6.109 3.1,7.203 3.91,15.168 2.36,22.832 -1.62,7.657 -5.46,14.649 -11.06,20.09 -1.7,1.637 -3.54,3.09 -5.54,4.34 -0.66,0.609 -1.4,1.098 -2.28,1.414"
       fill="#263238"
       id="path139" />
    <path
       transform="matrix(0.1,0,0,-0.1,0,540)"
       d="m 6062.54,856.258 c -6.35,-6.102 -12.25,-12.567 -17.71,-19.383 -5.9,-6.492 -11.35,-13.281 -16.52,-20.355 6.35,6.023 12.24,12.472 17.7,19.293 5.9,6.535 11.36,13.355 16.53,20.445"
       fill="#263238"
       id="path140" />
    <path
       transform="matrix(0.1,0,0,-0.1,0,540)"
       d="m 6049.92,765.984 c 3.84,-4.964 8.19,-9.425 13.13,-13.277 4.57,-4.277 9.74,-7.906 15.27,-10.797 0,0 -6.42,5.309 -14.24,11.949 -7.74,6.637 -13.79,12.743 -14.16,12.125"
       fill="#263238"
       id="path141" />
    <path
       transform="matrix(0.1,0,0,-0.1,0,540)"
       d="m 6030.82,782.004 c 0,0 -0.59,-1.774 -1.18,-3.809 -0.51,-2.035 -1.33,-3.539 -0.96,-3.804 0.37,-0.266 1.77,1.062 2.51,3.453 0.66,2.386 0.07,4.246 -0.37,4.16"
       fill="#263238"
       id="path142" />
    <path
       transform="matrix(0.1,0,0,-0.1,0,540)"
       d="m 6031.11,797.047 c -0.44,0 -0.66,-1.594 -0.44,-3.449 0.15,-1.86 0.59,-3.364 1.03,-3.364 0.45,0 0.59,1.59 0,3.45 -0.59,1.859 -0.14,3.363 -0.59,3.363"
       fill="#263238"
       id="path143" />
    <path
       transform="matrix(0.1,0,0,-0.1,0,540)"
       d="m 6024.18,809.793 c 0,-0.441 1.18,-1.504 2.14,-3.188 0.96,-1.679 1.4,-3.363 1.84,-3.363 0.45,0 0.74,2.035 -0.51,4.16 -1.26,2.125 -3.32,2.746 -3.47,2.391"
       fill="#263238"
       id="path144" />
    <path
       transform="matrix(0.1,0,0,-0.1,0,540)"
       d="m 6018.43,817.848 c 0,0 0,-1.243 0,-2.215 0,-0.973 1.33,-1.594 1.7,-1.414 0.36,0.176 0,1.238 0,2.211 0,0.972 -1.33,1.593 -1.7,1.418"
       fill="#263238"
       id="path145" />
    <path
       transform="matrix(0.1,0,0,-0.1,0,540)"
       d="m 6377.17,2159.75 c 0,0 -42.41,-179.29 -30.39,-214.77 12.02,-35.55 89.68,-55.98 89.68,-55.98 l -2.65,-491.12 -429.47,-531.001 158.43,-129.57 c 0,0 465.01,531.791 506.02,628.411 40.93,96.54 -26.55,802.29 -26.55,802.29"
       fill="#263238"
       id="path146" />
    <path
       transform="matrix(0.1,0,0,-0.1,0,540)"
       d="M 6596.44,2232.84 6617.46,741.379 6399.07,740.051 6289.4,1955.01 c -23.16,22.13 -55.83,60.04 -51.33,144.56 l 5.31,98.16"
       fill="#263238"
       id="path147" />
    <path
       transform="matrix(0.1,0,0,-0.1,0,540)"
       d="m 6366.32,1314.9 c 0.38,0.74 0.74,1.55 1.26,2.21 1.18,1.55 2.51,3.62 4.13,6.12 l 16.22,22.87 59.3,82.16 v -1.18 c -4.79,51.78 -10.54,114.54 -16.74,182.25 -7.97,88.5 -14.31,169.04 -18.14,227.38 -1.92,29.13 -3.17,52.66 -3.91,68.96 0,7.74 -0.52,14.09 -0.59,18.81 -0.3,2.21 -0.3,4.42 0,6.56 0.44,-2.14 0.66,-4.35 0.81,-6.56 0,-4.65 0.88,-10.92 1.47,-18.74 1.33,-16.74 3.1,-40.12 5.39,-68.88 4.64,-58.12 11.5,-138.36 19.47,-227.09 5.97,-67.93 11.95,-130.62 15.93,-182.69 v -0.59 -0.51 l -60.62,-81.06 -17.04,-22.42 -4.65,-5.75 c -1.84,-1.41 -2.29,-1.92 -2.29,-1.85"
       fill="#455a64"
       id="path148" />
    <path
       transform="matrix(0.1,0,0,-0.1,0,540)"
       d="m 6433.22,1931.04 c -19.47,1.03 -38.87,3.98 -57.82,8.85 -19.33,3.25 -38.21,8.41 -56.5,15.41 19.33,-2.5 38.5,-6.12 57.46,-10.91 19.17,-3.32 38.2,-7.82 56.86,-13.35"
       fill="#455a64"
       id="path149" />
    <path
       transform="matrix(0.1,0,0,-0.1,0,540)"
       d="m 6582.79,1421.55 c -18.81,7.82 -38.65,12.98 -58.93,15.41 -20.43,0.82 -40.86,-1.17 -60.7,-5.97 5.17,3.32 10.99,5.53 16.97,6.64 14.45,3.76 29.42,5.09 44.25,3.91 14.82,-1.18 29.28,-4.8 42.85,-10.7 5.75,-2.14 10.99,-5.31 15.56,-9.29"
       fill="#455a64"
       id="path150" />
    <path
       transform="matrix(0.1,0,0,-0.1,0,540)"
       d="m 6659.94,1352.66 c 0.96,-0.81 -60.48,-83.27 -137.33,-184.16 -76.78,-100.89 -139.91,-182.246 -140.87,-181.508 -0.96,0.664 60.48,83.268 137.26,184.238 76.85,100.97 139.91,182.25 140.94,181.43"
       fill="#455a64"
       id="path151" />
    <path
       transform="matrix(0.1,0,0,-0.1,0,540)"
       d="m 6630.36,2122.14 c -2.5,-6.5 -6.78,-12.1 -12.31,-16.3 -25.3,-22.2 -63.87,-19.62 -86.07,5.68 -1.04,1.25 -2,2.43 -2.95,3.68 -4.73,5.24 -7.75,11.66 -8.85,18.51 3.39,-5.67 7.15,-11.13 11.13,-16.37 21.02,-25.52 58.64,-29.43 84.52,-8.85 5.09,4.28 9.96,8.85 14.53,13.65"
       fill="#455a64"
       id="path152" />
    <path
       transform="matrix(0.1,0,0,-0.1,0,540)"
       d="m 6331.81,2889.54 c -74.79,71.1 -79.36,188.81 -10.33,265.51"
       fill="#263238"
       id="path153" />
    <path
       transform="matrix(0.1,0,0,-0.1,0,540)"
       d="m 6209.08,2750.45 c 0,0 -47.42,-53.63 -57.3,-258.74 0,0 135.18,-25.66 137.62,-18.28 2.51,7.3 -80.32,277.02 -80.32,277.02"
       fill="#16b3ac"
       id="path154" />
  </g>
  <g
     clip-path="url(#clip_10)"
     id="g155"
     transform="translate(-551.139,-111.333)" />
  <g
     clip-path="url(#clip_11)"
     id="g156"
     transform="translate(-551.139,-111.333)">
    <path
       transform="matrix(0.1,0,0,-0.1,0,540)"
       d="M 6230.99,2153.11 H 6646 l -6.71,64.91 c 0,0 -47.43,246.55 -47.06,249.8 l 7.38,15.71 c 19.69,41.15 20.35,88.8 1.92,130.54 l 203.56,69.48 -49.79,167.57 c -92.19,-15.49 -231.59,-32.9 -231.59,-32.9 l -20.72,-1.69 c 0,0 -143.89,-7.53 -146.99,-7.89 -60.18,-7.31 -130.18,-11.95 -155.77,-76.34 -13.72,-34.44 -0.74,-86.14 21.68,-139.39 l 53.11,-163.74 c 21.24,-90.05 -12.69,-85.7 -31.35,-176.34 -3.02,-13.57 -12.9,-87.18 -12.68,-99.72"
       fill="#16b3ac"
       id="path155" />
  </g>
  <g
     clip-path="url(#clip_12)"
     id="g157"
     transform="translate(-551.139,-111.333)" />
  <g
     clip-path="url(#clip_13)"
     id="g166"
     transform="translate(-551.139,-111.333)">
    <path
       transform="matrix(0.1,0,0,-0.1,0,540)"
       d="m 6802.73,2680.75 c -2.81,-1.55 -5.76,-2.8 -8.85,-3.77 -5.83,-2.13 -14.39,-5.09 -25.01,-8.85 -21.24,-7.15 -50.82,-16.67 -83.41,-27.06 -32.53,-10.48 -61.96,-20.8 -82.31,-29.36 -10.4,-4.2 -18.66,-7.96 -24.42,-10.4 -2.8,-1.54 -5.75,-2.72 -8.84,-3.54 2.57,2.07 5.38,3.77 8.33,5.24 5.6,2.88 13.64,7.15 23.9,11.73 26.84,11.72 54.28,21.9 82.23,30.6 32.67,10.48 61.95,19.48 83.79,25.89 10.69,3.17 19.47,5.68 25.51,7.31 2.96,1.17 5.98,1.91 9.08,2.21"
       fill="#263238"
       id="path157" />
    <path
       transform="matrix(0.1,0,0,-0.1,0,540)"
       d="m 6778.68,2770.06 c 0,-1.25 -122.72,-2.28 -274.36,-2.28 -151.64,0 -274.37,1.03 -274.37,2.28 0,1.26 122.66,2.29 274.37,2.29 151.71,0 274.36,-1.03 274.36,-2.29"
       fill="#fafafa"
       id="path158" />
    <path
       transform="matrix(0.1,0,0,-0.1,0,540)"
       d="m 6791.14,2688.56 c 0,-1.25 -136.51,-2.28 -304.96,-2.28 -168.46,0 -304.9,1.03 -304.9,2.28 0,1.26 136.44,2.29 304.9,2.29 168.45,0 304.96,-1.03 304.96,-2.29"
       fill="#fafafa"
       id="path159" />
    <path
       transform="matrix(0.1,0,0,-0.1,0,540)"
       d="m 6215.87,2595.78 c -8.26,-2.21 -16.89,-3.02 -25.45,-2.28 -8.55,-0.74 -17.18,0.07 -25.44,2.28 8.26,2.29 16.89,3.02 25.44,2.36 8.56,0.66 17.19,-0.07 25.45,-2.36"
       fill="#fafafa"
       id="path160" />
    <path
       transform="matrix(0.1,0,0,-0.1,0,540)"
       d="m 6614.14,2592.98 c 0,-1.25 -89.32,-2.29 -199.36,-2.29 -110.11,0 -199.43,1.04 -199.43,2.29 0,1.25 89.24,2.29 199.43,2.29 110.19,0 199.36,-0.96 199.36,-2.29"
       fill="#fafafa"
       id="path161" />
    <path
       transform="matrix(0.1,0,0,-0.1,0,540)"
       d="m 6605.29,2497.47 c 0,-1.33 -80.17,-2.29 -178.93,-2.29 -98.75,0 -179.07,0.96 -179.07,2.29 0,1.33 80.09,2.28 179.07,2.28 98.91,0 178.93,-1.03 178.93,-2.28"
       fill="#fafafa"
       id="path162" />
    <path
       transform="matrix(0.1,0,0,-0.1,0,540)"
       d="m 6602.85,2408.89 c 0,-1.25 -72.57,-2.28 -162.18,-2.28 -89.54,0 -162.33,1.03 -162.33,2.28 0,1.25 72.72,2.29 162.33,2.29 89.68,0 162.18,-0.96 162.18,-2.29"
       fill="#fafafa"
       id="path163" />
    <path
       transform="matrix(0.1,0,0,-0.1,0,540)"
       d="m 6617.09,2337.28 c 0,-1.33 -77.74,-2.29 -173.54,-2.29 -95.89,0 -173.62,0.96 -173.62,2.29 0,1.32 77.73,2.28 173.62,2.28 95.8,0 173.54,-1.03 173.54,-2.28"
       fill="#fafafa"
       id="path164" />
    <path
       transform="matrix(0.1,0,0,-0.1,0,540)"
       d="m 6639.58,2245.97 c 0,-1.33 -88.5,-2.29 -197.51,-2.29 -108.93,0 -197.44,0.96 -197.44,2.29 0,1.33 88.51,2.28 197.44,2.28 109.01,0 197.51,-1.03 197.51,-2.28"
       fill="#fafafa"
       id="path165" />
    <path
       transform="matrix(0.1,0,0,-0.1,0,540)"
       d="m 6272.29,2436.84 c -1.7,2.51 -2.95,5.24 -3.76,8.19 l -8.85,22.64 c -7.3,19.1 -17.7,45.51 -28.32,74.94 -10.63,29.5 -19.55,56.42 -25.15,76.11 -2.73,9.96 -4.87,17.7 -5.98,23.53 -0.88,2.88 -1.33,5.9 -1.55,8.85 4.13,-10.26 7.67,-20.73 10.62,-31.42 6.42,-19.47 15.71,-46.17 26.56,-75.52 10.91,-29.43 20.5,-55.98 26.55,-75.46 3.32,-9.73 5.75,-17.7 7.37,-23.15 1.18,-2.81 2.07,-5.68 2.51,-8.71"
       fill="#263238"
       id="path166" />
  </g>
</svg>
