<?xml version="1.0" encoding="UTF-8" standalone="no"?>
<svg
   width="24.199001mm"
   height="9.0794401mm"
   viewBox="0 0 24.199001 9.0794401"
   version="1.1"
   id="svg1"
   inkscape:version="1.3.2 (091e20e, 2023-11-25, custom)"
   sodipodi:docname="sekolah.svg"
   xmlns:inkscape="http://www.inkscape.org/namespaces/inkscape"
   xmlns:sodipodi="http://sodipodi.sourceforge.net/DTD/sodipodi-0.dtd"
   xmlns="http://www.w3.org/2000/svg"
   xmlns:svg="http://www.w3.org/2000/svg">
  <sodipodi:namedview
     id="namedview1"
     pagecolor="#ffffff"
     bordercolor="#000000"
     borderopacity="0.25"
     inkscape:showpageshadow="2"
     inkscape:pageopacity="0.0"
     inkscape:pagecheckerboard="0"
     inkscape:deskcolor="#d1d1d1"
     inkscape:document-units="mm"
     inkscape:zoom="3.0467172"
     inkscape:cx="100.60008"
     inkscape:cy="0.9846664"
     inkscape:window-width="1443"
     inkscape:window-height="492"
     inkscape:window-x="96"
     inkscape:window-y="96"
     inkscape:window-maximized="0"
     inkscape:current-layer="layer1" />
  <defs
     id="defs1">
    <clipPath
       clipPathUnits="userSpaceOnUse"
       id="clipPath1">
      <g
         id="g2">
        <path
           d="m 99.123498,154.02878 h 9.397972 v -9.39776 h -9.397972 Z"
           id="path1"
           style="stroke-width:0.0264583" />
      </g>
    </clipPath>
    <clipPath
       clipPathUnits="userSpaceOnUse"
       id="clipPath2">
      <g
         id="g3">
        <path
           d="m 99.123498,154.02878 h 9.397972 v -9.39776 h -9.397972 Z"
           id="path2"
           style="stroke-width:0.0264583" />
      </g>
    </clipPath>
    <clipPath
       clipPathUnits="userSpaceOnUse"
       id="clipPath3">
      <g
         id="g4">
        <path
           d="m 99.123498,154.02878 h 9.397972 v -9.39776 h -9.397972 Z"
           id="path3"
           style="stroke-width:0.0264583" />
      </g>
    </clipPath>
    <clipPath
       clipPathUnits="userSpaceOnUse"
       id="clipPath5">
      <g
         id="g6">
        <path
           d="m 100.6475,148.85353 h 5.9055 v -5.9055 h -5.9055 Z"
           id="path6"
           style="stroke-width:0.0264583" />
      </g>
    </clipPath>
    <clipPath
       clipPathUnits="userSpaceOnUse"
       id="clipPath6">
      <g
         id="g7">
        <path
           d="m 100.6475,148.85353 h 5.9055 v -5.9055 h -5.9055 Z"
           id="path7"
           style="stroke-width:0.0264583" />
      </g>
    </clipPath>
  </defs>
  <g
     inkscape:label="Layer 1"
     inkscape:groupmode="layer"
     id="layer1"
     transform="translate(-92.742818,-143.93334)">
    <path
       d="m 92.742818,153.01278 h 24.199002 v -9.07944 H 92.742818 Z"
       fill="#00b3ac"
       fill-rule="evenodd"
       id="path11"
       style="stroke-width:0.0173724" />
    <g
       id="g8"
       transform="translate(1.1894175,-0.07501994)">
      <path
         d="m 103.60711,146.33339 2.64901,-0.93134 -2.64901,-0.94985 -2.64901,0.94985 0.34026,0.12171 v 1.12025 c 0,0.0669 0.0545,0.12171 0.12144,0.12171 0.0667,0 0.12171,-0.0548 0.12171,-0.12171 v -1.03505 l 2.0656,0.72443"
         fill="#ffffff"
         id="path28"
         style="stroke-width:0.0264583" /> <path
         d="m 106.09631,150.86147 c -0.34793,-0.3347 -0.76676,-0.58632 -1.22528,-0.73634 -0.33153,-0.12594 -0.68289,-0.19156 -1.03744,-0.19367 -0.35401,0.008 -0.70432,0.0733 -1.03743,0.19367 -0.45138,0.1651 -0.8673,0.41513 -1.22528,0.73634 -0.16166,0.16563 -0.25189,0.38814 -0.25136,0.61992 v 1.16257 h 2.4175 v -1.92114 l -0.93318,0.45641 c -0.0122,0.006 -0.0259,0.01 -0.0397,0.01 -0.0196,2.6e-4 -0.0386,-0.006 -0.0542,-0.0183 -0.028,-0.0196 -0.0418,-0.0537 -0.0357,-0.0873 l 0.11906,-0.74877 0.0646,-0.0254 c 0.13176,-0.0445 0.25532,-0.0794 0.37518,-0.10742 0.2114,0.33205 0.6514,0.42968 0.98266,0.21801 0.0897,-0.0572 0.1651,-0.13361 0.22119,-0.22384 0.12542,0.0299 0.24871,0.0675 0.36936,0.11245 l 0.0677,0.0251 0.11985,0.74983 c 0.006,0.0336 -0.008,0.0677 -0.0357,0.0873 -0.0153,0.0122 -0.0344,0.0185 -0.054,0.0183 -0.014,2.6e-4 -0.0275,-0.003 -0.0397,-0.01 l -0.93424,-0.45641 v 1.92114 h 2.4175 v -1.16257 c 5.2e-4,-0.23178 -0.0897,-0.45429 -0.25136,-0.61992"
         fill="#ffffff"
         id="path24"
         style="stroke-width:0.0264583" /> <path
         d="m 105.06073,147.83754 c -0.0982,-0.22463 -0.23415,-0.43047 -0.40243,-0.60827 -0.16907,0.17727 -0.3601,0.33231 -0.56832,0.46117 -0.29713,0.17065 -0.6096,0.313 -0.93319,0.42518 -0.0505,0.0172 -0.10557,-0.0101 -0.12277,-0.0606 -0.0132,-0.0394 0,-0.0825 0.0328,-0.10795 0.0913,-0.0831 0.16404,-0.18441 0.21379,-0.29739 0.0114,-0.0251 0.0212,-0.0476 0.0288,-0.0699 -0.063,0.0662 -0.13177,0.12594 -0.20585,0.17939 -0.15796,0.11218 -0.33311,0.19817 -0.51832,0.25479 -0.0735,0.10213 -0.12647,0.21749 -0.15557,0.33999 -0.0148,0.073 -0.0246,0.14658 -0.0291,0.22093 0.32147,0.79322 1.2237,1.17528 2.01533,0.85328 0.37915,-0.15425 0.68183,-0.4527 0.84191,-0.83 -0.0349,-0.26061 -0.10107,-0.51594 -0.19712,-0.76068"
         fill="#ffffff"
         id="path25"
         style="stroke-width:0.0264583" /> <path
         d="m 102.45273,147.8685 c 0.0132,-0.0167 0.0318,-0.0286 0.0521,-0.0339 0.1733,-0.0495 0.33681,-0.12805 0.48366,-0.23257 0.14261,-0.10503 0.26511,-0.23495 0.36168,-0.38364 0.0183,-0.0307 0.0521,-0.0492 0.0878,-0.0474 0.0357,0.002 0.0675,0.0238 0.0823,0.0561 0.009,0.0185 0.0812,0.19394 -0.0667,0.50483 -0.0127,0.0273 -0.0262,0.0524 -0.0389,0.0757 0.19738,-0.0799 0.38841,-0.17463 0.57176,-0.28311 0.22199,-0.1352 0.42228,-0.30374 0.59346,-0.4998 0.0172,-0.0206 0.0421,-0.0333 0.0688,-0.0349 0.027,-0.002 0.0537,0.007 0.0733,0.0262 0.21933,0.21405 0.39502,0.46832 0.51831,0.74904 0.059,0.14949 0.10769,0.30295 0.14526,0.45905 0.0701,-0.0923 0.1106,-0.20373 0.11589,-0.31962 5.3e-4,-0.49239 -0.21828,-0.95964 -0.59664,-1.27397 l 0.32306,-0.16007 c 0.0407,-0.0212 0.0563,-0.0717 0.0349,-0.11245 -0.0167,-0.0317 -0.0519,-0.0492 -0.0873,-0.0434 l -0.45905,0.0833 0.11298,-0.16378 c 0.023,-0.0336 0.0185,-0.0789 -0.0106,-0.10769 -0.0294,-0.0283 -0.0751,-0.0307 -0.10715,-0.006 l -0.24395,0.18388 -0.24262,-0.44264 c -0.0228,-0.0405 -0.0736,-0.054 -0.11324,-0.0315 -0.0296,0.0169 -0.046,0.05 -0.0413,0.0839 l 0.0529,0.35745 c -0.0926,-0.0164 -0.18627,-0.0246 -0.2802,-0.0251 -0.9136,0.001 -1.65364,0.74321 -1.65364,1.65841 0.002,0.10318 0.0325,0.20399 0.0881,0.29077 0.0413,-0.11747 0.10028,-0.2278 0.17489,-0.32755"
         fill="#ffffff"
         id="path26"
         style="stroke-width:0.0264583" /> <path
         d="m 101.90584,145.9926 v 0.71226 c 0,0.33497 0.75962,0.66966 1.70127,0.66966 0.94192,0 1.70154,-0.33469 1.70154,-0.66966 v -0.71226 l -1.70154,0.60273 -1.70127,-0.60273"
         fill="#ffffff"
         id="path27"
         style="stroke-width:0.0264583" /> </g>
  </g>
</svg>