<svg width="34" height="24" viewBox="0 0 9 6.3" xmlns="http://www.w3.org/2000/svg">
  <path d="M1.3 5H5V1.4H1.3Z" fill="#00b3ac" fill-rule="evenodd" style="stroke:#00b3ac;stroke-width:2.52669;stroke-linejoin:round;stroke-dasharray:none;stroke-opacity:1"/>
  <g fill="#fff">
    <path d="m103.6 146.3 2.7-.9-2.7-1-2.6 1 .3.1v1.1a.1.1 0 0 0 .2 0v-1l2.1.7m2.5 4.6c-.4-.4-.8-.6-1.2-.8a3 3 0 0 0-2.1 0c-.5.2-.9.4-1.2.8-.2.1-.3.3-.3.6v1.1h2.4v-1.9l-.9.5-.1-.1v-.8h.2l.3-.1a.7.7 0 0 0 1.2 0l.4.1.2.8h-.1l-1-.4v2h2.4v-1.2c0-.3 0-.5-.2-.6m-1.1-3.1-.3-.6-.6.5-1 .4a.1.1 0 0 1 0-.2.9.9 0 0 0 .2-.3l-.2.2-.5.2a1 1 0 0 0-.2.6 1.5 1.5 0 0 0 2.9 0l-.2-.8" style="stroke-width:.0264583" transform="translate(-53.5 -78) scale(.54694)"/>
    <path d="m102.5 147.9.5-.3.4-.4h.1v.6l.5-.3.6-.5h.1a2.4 2.4 0 0 1 .7 1.2l.1-.3c0-.5-.2-1-.6-1.3l.3-.1v-.2l-.5.1.1-.2c0-.1 0-.1 0 0l-.3.1-.3-.4h-.1v.4h-.3c-.9 0-1.6.7-1.6 1.6v.3l.3-.3" style="stroke-width:.0264583" transform="translate(-53.5 -78) scale(.54694)"/>
    <path d="M102 146v.7c0 .3.7.7 1.6.7 1 0 1.7-.4 1.7-.7v-.7l-1.7.6-1.7-.6" style="stroke-width:.0264583" transform="translate(-53.5 -78) scale(.54694)"/>
  </g>
</svg>